<?xml version="1.0" standalone="no"?>
<!DOCTYPE svg PUBLIC "-//W3C//DTD SVG 20010904//EN"
 "http://www.w3.org/TR/2001/REC-SVG-20010904/DTD/svg10.dtd">
<svg version="1.0" xmlns="http://www.w3.org/2000/svg"
 width="399.000000pt" height="202.000000pt" viewBox="0 0 399.000000 202.000000"
 preserveAspectRatio="xMidYMid meet">

<g transform="translate(0.000000,202.000000) scale(0.100000,-0.100000)"
fill="#404040" stroke="none">
<path fill="#1e3ea6" d="M1321 1427 c-6 -8 -14 -28 -17 -45 -5 -25 -1 -36 19 -56 33 -33 61
-33 92 -1 30 30 31 54 4 89 -23 29 -78 36 -98 13z"/>
<path fill="#1e3ea6" d="M3472 1420 c-73 -45 -272 -213 -294 -247 -13 -20 -32 -50 -42 -66
-17 -26 -18 -35 -9 -71 7 -25 8 -47 2 -58 -16 -29 -10 -65 16 -96 40 -48 316
-255 360 -270 52 -18 110 -9 161 26 22 15 102 76 177 135 146 117 161 138 138
200 -8 20 -8 34 0 49 34 64 -43 169 -225 307 -132 101 -140 105 -194 108 -45
3 -64 0 -90 -17z m207 -196 c72 -55 131 -102 131 -105 0 -3 -11 -11 -24 -19
-23 -12 -32 -6 -166 101 -114 91 -138 115 -123 121 31 12 47 4 182 -98z m-26
-104 c61 -49 66 -56 51 -67 -10 -7 -23 -13 -30 -13 -13 0 -206 164 -212 180
-2 5 7 10 20 12 23 4 31 -1 171 -112z m-82 -66 c27 -20 49 -39 49 -43 0 -4
-11 -13 -24 -19 -21 -9 -29 -5 -75 35 -39 34 -49 48 -39 54 23 15 39 10 89
-27z"/>
<path fill="#1e3ea6" d="M2835 1395 c-14 -13 -25 -33 -25 -45 0 -27 43 -70 70 -70 27 0 70 43
70 70 0 27 -43 70 -70 70 -11 0 -32 -11 -45 -25z"/>
<path d="M1253 1233 c-30 -4 -33 -8 -33 -38 l0 -33 73 -4 c81 -4 121 -20 151
-61 17 -23 22 -46 24 -123 l4 -94 -129 0 c-70 0 -134 -4 -141 -9 -8 -5 -12
-22 -10 -42 l3 -34 177 -3 178 -2 6 26 c10 38 -3 242 -18 288 -14 45 -59 93
-103 111 -35 15 -135 24 -182 18z"/>
<path d="M1880 1233 c-59 -10 -91 -27 -124 -63 -76 -84 -77 -251 -2 -326 39
-39 89 -54 180 -54 l69 0 -7 -42 c-4 -26 -17 -53 -32 -68 -22 -23 -34 -25
-127 -30 l-102 -5 0 -35 0 -35 87 -3 c49 -1 106 2 128 8 78 21 130 92 130 177
l0 30 83 5 c46 3 94 11 106 17 18 10 26 8 50 -9 63 -44 198 -45 260 -1 26 19
30 19 72 4 52 -18 232 -14 252 6 13 13 24 303 13 347 -5 20 -12 24 -46 24
l-40 0 0 -150 0 -150 -71 0 c-104 0 -109 4 -109 103 0 104 -14 153 -54 193
-85 85 -266 62 -316 -41 -13 -27 -22 -73 -26 -136 -4 -52 -11 -100 -17 -106
-6 -8 -36 -13 -83 -13 l-74 0 0 169 c0 153 -2 170 -17 175 -29 8 -156 14 -183
9z m115 -218 l0 -140 -70 2 c-50 2 -77 8 -95 21 -51 38 -62 137 -23 203 22 37
76 59 138 56 l50 -2 0 -140z m509 125 c40 -15 60 -64 60 -150 0 -88 -12 -116
-61 -137 -50 -21 -106 -9 -138 29 -22 26 -25 39 -25 106 0 59 5 85 20 110 29
48 86 65 144 42z"/>
<path d="M673 1220 c-17 -7 -23 -18 -23 -40 l0 -30 78 0 c134 -1 181 -36 247
-186 l34 -79 -184 -5 c-101 -3 -187 -9 -192 -13 -4 -5 -8 -48 -8 -95 0 -70 5
-96 23 -133 31 -64 97 -97 179 -90 15 1 25 33 18 53 -4 9 -23 18 -44 22 -20 3
-47 16 -59 29 -21 23 -43 100 -34 125 3 9 53 12 198 12 l194 0 6 27 c13 51
-78 267 -139 331 -51 54 -101 74 -192 78 -44 2 -90 0 -102 -6z"/>
<path fill="#1e3ea6" d="M845 735 c-14 -13 -25 -33 -25 -45 0 -27 43 -70 70 -70 12 0 32 11
45 25 14 13 25 34 25 45 0 12 -11 32 -25 45 -13 14 -33 25 -45 25 -11 0 -32
-11 -45 -25z"/>
</g>
</svg>
