<svg id="Group_7" data-name="Group 7" xmlns="http://www.w3.org/2000/svg" viewBox="0 0 544.3002 595.3795"><defs><style>.cls-1{fill:#e6e6e6;}.cls-2{fill:#002aae;}.cls-3{fill:#a0616a;}.cls-4{fill:#ccc;}.cls-5{fill:#2f2e41;}.cls-6{fill:#3f3d56;}.cls-7{fill:#fff;}.cls-8{font-size:21px;font-family:AdobeArabic-Regular, Adobe Arabic;}</style></defs><rect id="Rectangle_3" data-name="Rectangle 3" class="cls-1" x="414.1721" y="54.2626" width="1.5" height="98.801" transform="translate(53.754 328.5461) rotate(-46.41)"/><path id="Path_3" data-name="Path 3" class="cls-1" d="M451.3,128.7463l-1.7.1.5,8.3-8.3-.1v1.7l10.1.1Z" transform="translate(0.0002 -4.1668)"/><path id="Path_4" data-name="Path 4" class="cls-1" d="M387,68.6463v1.5l-7.5-.1.5,7.4-1.5.1-.6-9.1Z" transform="translate(0.0002 -4.1668)"/><circle id="Ellipse_1" data-name="Ellipse 1" class="cls-1" cx="414.9002" cy="99.5795" r="8.3"/><rect id="Rectangle_4" data-name="Rectangle 4" class="cls-1" x="81.7221" y="103.43" width="97.501" height="1.5" transform="translate(-35.8588 114.5164) rotate(-43.59)"/><path id="Path_5" data-name="Path 5" class="cls-1" d="M93.9,138.9463l11-.1v-1.8l-9,.1.6-9-1.8-.1Z" transform="translate(0.0002 -4.1668)"/><path id="Path_6" data-name="Path 6" class="cls-1" d="M167.9,68.5463l-.5,8.2-1.4-.1.4-6.7-6.7.1v-1.4Z" transform="translate(0.0002 -4.1668)"/><circle id="Ellipse_2" data-name="Ellipse 2" class="cls-1" cx="130.4002" cy="99.9795" r="8.2"/><path id="Path_28" data-name="Path 28" class="cls-1" d="M179.8,457.2463v-32.6a3.3719,3.3719,0,0,1,3.3436-3.4q.0282,0,.0564,0h27.6a3.3719,3.3719,0,0,1,3.4,3.3436q0,.0282,0,.0564v32.6a3.3719,3.3719,0,0,1-3.3436,3.4q-.0282,0-.0564,0H183.2a3.3719,3.3719,0,0,1-3.4-3.3436Q179.8,457.2745,179.8,457.2463Z" transform="translate(0.0002 -4.1668)"/><path id="Path_29" data-name="Path 29" class="cls-2" d="M189.7,446.4463v-32.6a3.3719,3.3719,0,0,1,3.3436-3.4q.0282,0,.0564,0h27.6a3.3719,3.3719,0,0,1,3.4,3.3436q0,.0282,0,.0564v32.6a3.3719,3.3719,0,0,1-3.3436,3.4q-.0282,0-.0564,0H193.1a3.5048,3.5048,0,0,1-3.4-3.4Z" transform="translate(0.0002 -4.1668)"/><path id="Path_30" data-name="Path 30" class="cls-3" d="M313.6,435.9463a8.1994,8.1994,0,0,1-3-11.2,8.3346,8.3346,0,0,1,.8-1.2l-8.6-62.6,17.8.9,2.8,61.1a8.24,8.24,0,0,1,.2478,11.65l-.0478.05a8.0253,8.0253,0,0,1-10,1.3Z" transform="translate(0.0002 -4.1668)"/><path id="Path_31" data-name="Path 31" class="cls-4" d="M323.1,362.6463a3.5881,3.5881,0,0,1-1.4,1l-16,6.1a3.3585,3.3585,0,0,1-4.3-1.8l-14.2-31.9a12.9429,12.9429,0,0,1,9.2-18.3,11.8332,11.8332,0,0,1,5.3.1,12.721,12.721,0,0,1,9.3,8.1l12.6,33.4A2.8911,2.8911,0,0,1,323.1,362.6463Z" transform="translate(0.0002 -4.1668)"/><path id="Path_32" data-name="Path 32" class="cls-3" d="M239.6,588.7463H228.5l-4-43,15.1.2Z" transform="translate(0.0002 -4.1668)"/><path id="Path_33" data-name="Path 33" class="cls-5" d="M220.6,585.6463H242v13.5H207.1a13.444,13.444,0,0,1,13.3876-13.5C220.5251,585.6461,220.5625,585.6461,220.6,585.6463Z" transform="translate(0.0002 -4.1668)"/><path id="Path_34" data-name="Path 34" class="cls-3" d="M291.2,588.7463H280.1l-5.3-42.8h16.4Z" transform="translate(0.0002 -4.1668)"/><path id="Path_35" data-name="Path 35" class="cls-5" d="M272.1,585.6463h21.4v13.5H258.6A13.5719,13.5719,0,0,1,272.1,585.6463Z" transform="translate(0.0002 -4.1668)"/><path id="Path_36" data-name="Path 36" class="cls-5" d="M292.6,573.5463l-17.4-1.3a4.1822,4.1822,0,0,1-3.8-3.9l-3.9-80.3a3.2045,3.2045,0,0,0-3.3-3,3.0949,3.0949,0,0,0-2.9,2.5l-16.3,79.2a4.0306,4.0306,0,0,1-4.3,3.2l-15.7-1.3a4.0529,4.0529,0,0,1-3.7021-4.3757l.0021-.0243v-.1l14.6-146.1a4.0033,4.0033,0,0,1,4.3563-3.616q.072.0068.1437.016a.9019.9019,0,0,1,.5.1l55.6,12.1a4.0975,4.0975,0,0,1,3.2,4.1l-2.6,138.9a4.0342,4.0342,0,0,1-4.0677,4l-.0323,0A.7563.7563,0,0,0,292.6,573.5463Z" transform="translate(0.0002 -4.1668)"/><circle id="Ellipse_3" data-name="Ellipse 3" class="cls-3" cx="277.3002" cy="269.5795" r="22.2"/><path id="Path_37" data-name="Path 37" class="cls-4" d="M242.8,429.4463a20.2094,20.2094,0,0,1-6.6-15.3c0-31.9,27.6-103.3,28.5-105.5.1-.5.8-.8,4.6-3.4s9.4-3,16.4-1.2a3.8712,3.8712,0,0,1,2.9,3l1.3,1.9a3.0948,3.0948,0,0,0,1.8,2.2c5.7,2.4,23.8,13.5,17.6,55.1-5.7,38.7-8.1,61.4-8.8,69.4a4.0625,4.0625,0,0,1-3.7,3.7c-2.8.3-7.6.6-13.3.6C270.5,439.9463,252.4,438.1463,242.8,429.4463Z" transform="translate(0.0002 -4.1668)"/><path id="Path_38" data-name="Path 38" class="cls-3" d="M216.3,417.5463a8.2077,8.2077,0,0,1,3.7611-10.9811l.0389-.0189a5.7818,5.7818,0,0,1,1.4-.5l27.8-56.8,14.3,10.7-31.7,52.3a8.2982,8.2982,0,0,1-15.6,5.3Z" transform="translate(0.0002 -4.1668)"/><path id="Path_39" data-name="Path 39" class="cls-4" d="M265.1,362.0463a2.4787,2.4787,0,0,1-1.7,0l-16.7-3.9a3.458,3.458,0,0,1-2.6-3.9l6-34.4a13.4753,13.4753,0,0,1,4.7-8.2,12.7032,12.7032,0,0,1,13.1-1.8,12.3043,12.3043,0,0,1,4.4,3,12.9793,12.9793,0,0,1,3.2,11.9l-8.1,34.8A3.6146,3.6146,0,0,1,265.1,362.0463Z" transform="translate(0.0002 -4.1668)"/><path id="Path_40" data-name="Path 40" class="cls-5" d="M272.1,293.8463a9.507,9.507,0,0,1-2.6-8.5c.8-4.1,1.2-6.7,1.3-7.7h0c.3-3.3-3-6-6.3-6.4h-.3c.1.1.2.2.3.2.6.6,1.4,1.3,1.2,2.1-.1.5-.5.8-1.3,1-5.2,1.4-9.1.1-12.5-4.2a10.085,10.085,0,0,1-1.9-4.2c-1.2-5.9,2-11,4.9-14.2,2.4-2.6,6.3-5.8,11.2-6.1,3.8-.2,8.4,2,9.7,5.9a7.3348,7.3348,0,0,1,5.8-3.2,12.9969,12.9969,0,0,1,7.4,2.1c10.8,6.2,15.4,20.9,10.1,32.1-3.3,7.1-10.5,12.3-18.8,13.7a8.078,8.078,0,0,1-1.6.1A8.6088,8.6088,0,0,1,272.1,293.8463Z" transform="translate(0.0002 -4.1668)"/><path id="Path_41" data-name="Path 41" class="cls-6" d="M167.9,599.5463H344.3a.9.9,0,0,0,0-1.8H167.9a.9.9,0,0,0,0,1.8Z" transform="translate(0.0002 -4.1668)"/><path class="cls-6" d="M334.9,201.9463H209.4a6.7439,6.7439,0,0,1-6.8-6.6873q0-.0564,0-.1127v-158.8a6.7439,6.7439,0,0,1,6.6873-6.8c.0376,0,.0751,0,.1127,0H334.9a6.7439,6.7439,0,0,1,6.8,6.6873c0,.0376,0,.0751,0,.1127v158.8a6.7439,6.7439,0,0,1-6.6873,6.8C334.9751,201.9466,334.9376,201.9466,334.9,201.9463Z" transform="translate(0.0002 -4.1668)"/><path class="cls-7" d="M209.4,31.0463a5.3351,5.3351,0,0,0-5.3,5.3v158.8a5.3351,5.3351,0,0,0,5.3,5.3H334.9a5.3352,5.3352,0,0,0,5.3-5.3v-158.8a5.3352,5.3352,0,0,0-5.3-5.3Z" transform="translate(0.0002 -4.1668)"/><path id="Path_8" data-name="Path 8" class="cls-2" d="M261.7,105.8463H234.1a3.3719,3.3719,0,0,1-3.4-3.3436q0-.0282,0-.0564v-32.6a3.3719,3.3719,0,0,1,3.3436-3.4q.0282,0,.0564,0h27.6a3.3719,3.3719,0,0,1,3.4,3.3436q0,.0282,0,.0564v32.6a3.3719,3.3719,0,0,1-3.3436,3.4Q261.7282,105.8466,261.7,105.8463Z" transform="translate(0.0002 -4.1668)"/><path id="Path_9" data-name="Path 9" class="cls-4" d="M315.4,121.0463H287.8a3.3719,3.3719,0,0,1-3.4-3.3436q0-.0282,0-.0564v-32.6a3.3719,3.3719,0,0,1,3.3436-3.4q.0282,0,.0564,0h27.6a3.3719,3.3719,0,0,1,3.4,3.3436q0,.0282,0,.0564v32.6A3.4359,3.4359,0,0,1,315.4,121.0463Z" transform="translate(0.0002 -4.1668)"/><path id="Path_10" data-name="Path 10" class="cls-2" d="M272.3,167.1463H244.7a3.3719,3.3719,0,0,1-3.4-3.3436q0-.0282,0-.0564v-32.6a3.3719,3.3719,0,0,1,3.3436-3.4q.0282,0,.0564,0h27.6a3.3719,3.3719,0,0,1,3.4,3.3436q0,.0282,0,.0564v32.6a3.3719,3.3719,0,0,1-3.3436,3.4Q272.3282,167.1465,272.3,167.1463Z" transform="translate(0.0002 -4.1668)"/><path class="cls-6" d="M132.3,365.2463H6.8A6.7439,6.7439,0,0,1,0,358.559c0-.0376,0-.0751,0-.1127v-158.8a6.7439,6.7439,0,0,1,6.6873-6.8c.0376,0,.0751,0,.1127,0H132.3a6.7439,6.7439,0,0,1,6.8,6.6873c0,.0376,0,.0751,0,.1127v158.8A6.807,6.807,0,0,1,132.3,365.2463Z" transform="translate(0.0002 -4.1668)"/><path class="cls-7" d="M6.8,194.3463a5.3352,5.3352,0,0,0-5.3,5.3v158.8a5.3351,5.3351,0,0,0,5.3,5.3H132.3a5.3351,5.3351,0,0,0,5.3-5.3v-158.8a5.335,5.335,0,0,0-5.3-5.3Z" transform="translate(0.0002 -4.1668)"/><path id="Path_20" data-name="Path 20" class="cls-6" d="M112.4,230.3463H74.6a3.0086,3.0086,0,0,1-3-3,3.0759,3.0759,0,0,1,3-3h37.8a3.0952,3.0952,0,0,1,3.1,3,3.0288,3.0288,0,0,1-2.9564,3.0993l-.0436.0007C112.5,230.3463,112.5,230.3463,112.4,230.3463Z" transform="translate(0.0002 -4.1668)"/><path id="Path_21" data-name="Path 21" class="cls-6" d="M112.4,246.2463H74.6a3.0086,3.0086,0,0,1-3-3,3.0759,3.0759,0,0,1,3-3h37.8a3.0951,3.0951,0,0,1,3.1,3,3.0288,3.0288,0,0,1-2.9564,3.0993l-.0436.0007C112.5,246.2463,112.5,246.2463,112.4,246.2463Z" transform="translate(0.0002 -4.1668)"/><path id="Path_22" data-name="Path 22" class="cls-2" d="M55.2,255.2463H27.6a3.3719,3.3719,0,0,1-3.4-3.3436q0-.0282,0-.0564v-32.6a3.3719,3.3719,0,0,1,3.3436-3.4q.0282,0,.0564,0H55.2a3.3719,3.3719,0,0,1,3.4,3.3436q0,.0282,0,.0564v32.6a3.3719,3.3719,0,0,1-3.3436,3.4Q55.2282,255.2465,55.2,255.2463Z" transform="translate(0.0002 -4.1668)"/><path id="Path_23" data-name="Path 23" class="cls-4" d="M112.2,278.7463H26.7a3.0312,3.0312,0,0,1-3.0006-3.0615l.0006-.0385a3.0747,3.0747,0,0,1,3-3h85.4a3.0521,3.0521,0,0,1,.1,6.1Z" transform="translate(0.0002 -4.1668)"/><path id="Path_24" data-name="Path 24" class="cls-4" d="M112.2,294.6463H26.7a3.0086,3.0086,0,0,1-3-3,3.0759,3.0759,0,0,1,3-3h85.4a3.0008,3.0008,0,0,1,.1,6Z" transform="translate(0.0002 -4.1668)"/><path id="Path_25" data-name="Path 25" class="cls-4" d="M112.2,310.4463H26.7a3.0086,3.0086,0,0,1-3-3,3.0759,3.0759,0,0,1,3-3h85.4a3.0312,3.0312,0,0,1,3.0006,3.0615l-.0006.0385A2.9022,2.9022,0,0,1,112.2,310.4463Z" transform="translate(0.0002 -4.1668)"/><path id="Path_26" data-name="Path 26" class="cls-4" d="M112.2,326.3463H26.7a3.0311,3.0311,0,0,1-3.0006-3.0615l.0006-.0385a3.0747,3.0747,0,0,1,3-3h85.4a3.0311,3.0311,0,0,1,3.0006,3.0615l-.0006.0385a2.9251,2.9251,0,0,1-2.8493,2.9991Z" transform="translate(0.0002 -4.1668)"/><path id="Path_27" data-name="Path 27" class="cls-4" d="M112.2,342.2463H26.7a3.0086,3.0086,0,0,1-3-3,3.0759,3.0759,0,0,1,3-3h85.4a3.0008,3.0008,0,0,1,.1,6Z" transform="translate(0.0002 -4.1668)"/><path class="cls-6" d="M537.5,365.2463H412a6.8071,6.8071,0,0,1-6.8-6.8v-158.8a6.7439,6.7439,0,0,1,6.6873-6.8c.0376,0,.0751,0,.1127,0H537.5a6.807,6.807,0,0,1,6.8,6.8v158.8A6.8071,6.8071,0,0,1,537.5,365.2463Z" transform="translate(0.0002 -4.1668)"/><path class="cls-7" d="M412,194.3463a5.3352,5.3352,0,0,0-5.3,5.3v158.8a5.3351,5.3351,0,0,0,5.3,5.3H537.5a5.3352,5.3352,0,0,0,5.3-5.3v-158.8a5.3351,5.3351,0,0,0-5.3-5.3Z" transform="translate(0.0002 -4.1668)"/><path id="Path_12" data-name="Path 12" class="cls-2" d="M496.3,228.0463H453.2a3.0086,3.0086,0,0,1-3-3,3.0759,3.0759,0,0,1,3-3h43.1a3,3,0,0,1,0,6Z" transform="translate(0.0002 -4.1668)"/><path id="Path_13" data-name="Path 13" class="cls-4" d="M517.5,256.7463H432a3.0086,3.0086,0,0,1-3-3,3.0759,3.0759,0,0,1,3-3h85.4a3.0311,3.0311,0,0,1,3.0006,3.0615l-.0006.0385A2.9683,2.9683,0,0,1,517.5,256.7463Z" transform="translate(0.0002 -4.1668)"/><path id="Path_14" data-name="Path 14" class="cls-4" d="M517.5,272.6463H432a3.0312,3.0312,0,0,1-3.0006-3.0615l.0006-.0385a3.0747,3.0747,0,0,1,3-3h85.4a3.0521,3.0521,0,0,1,.1,6.1Z" transform="translate(0.0002 -4.1668)"/><path id="Path_15" data-name="Path 15" class="cls-4" d="M517.5,288.4463H432a3.0086,3.0086,0,0,1-3-3,3.0759,3.0759,0,0,1,3-3h85.4a3.0008,3.0008,0,0,1,.1,6Z" transform="translate(0.0002 -4.1668)"/><path id="Path_16" data-name="Path 16" class="cls-4" d="M517.5,304.3463H432a3.0086,3.0086,0,0,1-3-3,3.0759,3.0759,0,0,1,3-3h85.4a3.0008,3.0008,0,0,1,.1,6Z" transform="translate(0.0002 -4.1668)"/><path id="Path_17" data-name="Path 17" class="cls-4" d="M517.5,320.2463H432a3.0086,3.0086,0,0,1-3-3,3.0759,3.0759,0,0,1,3-3h85.4a3.0008,3.0008,0,0,1,.1,6Z" transform="translate(0.0002 -4.1668)"/><path id="Path_18" data-name="Path 18" class="cls-4" d="M517.5,336.1463H432a3.0312,3.0312,0,0,1-3.0006-3.0615l.0006-.0385a3.0747,3.0747,0,0,1,3-3h85.4a3.0086,3.0086,0,0,1,3,3A3.08,3.08,0,0,1,517.5,336.1463Z" transform="translate(0.0002 -4.1668)"/><text class="cls-8" transform="translate(229.3337 15.3809)">انفوجرافيك</text><text class="cls-8" transform="translate(45.5354 176.2076)">نماذج</text><text class="cls-8" transform="translate(444.8025 176.2076)">الشرائح</text></svg>