<?xml version="1.0" encoding="utf-8"?>
<!-- Generator: Adobe Illustrator 25.0.1, SVG Export Plug-In . SVG Version: 6.00 Build 0)  -->
<svg version="1.1" id="Group_7" xmlns="http://www.w3.org/2000/svg" xmlns:xlink="http://www.w3.org/1999/xlink" x="0px" y="0px"
	 viewBox="0 0 544.3 599.5" style="enable-background:new 0 0 544.3 599.5;" xml:space="preserve">
<style type="text/css">
	.st0{fill:#E6E6E6;}
	.st1{fill:#002AAE;}
	.st2{fill:#A0616A;}
	.st3{fill:#CCCCCC;}
	.st4{fill:#2F2E41;}
	.st5{fill:#3F3D56;}
	.st6{fill:#FFFFFF;}
.svg-link .st5 {
-webkit-transition: all ease 0.3s;
-o-transition: all ease 0.3s;
transition: all ease 0.3s;		
}	
.svg-link:hover .st5 {
-webkit-filter: drop-shadow(3px 4px 0px rgba(0,0,0,0.2));
        filter: drop-shadow(3px 4px 0px rgba(0,0,0,0.2));
}	
</style>
<rect id="Rectangle_3" x="414.2" y="54.3" transform="matrix(0.6895 -0.7243 0.7243 0.6895 53.7537 332.713)" class="st0" width="1.5" height="98.8"/>
<path id="Path_3" class="st0" d="M451.3,128.7l-1.7,0.1l0.5,8.3l-8.3-0.1v1.7l10.1,0.1L451.3,128.7z"/>
<path id="Path_4" class="st0" d="M387,68.6v1.5l-7.5-0.1l0.5,7.4l-1.5,0.1l-0.6-9.1L387,68.6z"/>
<circle id="Ellipse_1" class="st0" cx="414.9" cy="103.7" r="8.3"/>
<rect id="Rectangle_4" x="81.7" y="103.4" transform="matrix(0.7243 -0.6895 0.6895 0.7243 -35.8591 118.6832)" class="st0" width="97.5" height="1.5"/>
<path id="Path_5" class="st0" d="M93.9,138.9l11-0.1V137l-9,0.1l0.6-9l-1.8-0.1L93.9,138.9z"/>
<path id="Path_6" class="st0" d="M167.9,68.5l-0.5,8.2l-1.4-0.1l0.4-6.7l-6.7,0.1v-1.4L167.9,68.5z"/>
<circle id="Ellipse_2" class="st0" cx="130.4" cy="104.1" r="8.2"/>
<path id="Path_28" class="st0" d="M179.8,457.2v-32.6c0-1.9,1.5-3.4,3.3-3.4c0,0,0,0,0.1,0h27.6c1.9,0,3.4,1.5,3.4,3.3
	c0,0,0,0,0,0.1v32.6c0,1.9-1.5,3.4-3.3,3.4c0,0,0,0-0.1,0h-27.6C181.3,460.7,179.8,459.2,179.8,457.2
	C179.8,457.3,179.8,457.3,179.8,457.2z"/>
<path id="Path_29" class="st1" d="M189.7,446.4v-32.6c0-1.9,1.5-3.4,3.3-3.4c0,0,0,0,0.1,0h27.6c1.9,0,3.4,1.5,3.4,3.3
	c0,0,0,0,0,0.1v32.6c0,1.9-1.5,3.4-3.3,3.4c0,0,0,0-0.1,0h-27.6C191.2,449.8,189.8,448.3,189.7,446.4L189.7,446.4z"/>
<path id="Path_30" class="st2" d="M313.6,435.9c-3.9-2.3-5.3-7.3-3-11.2c0.2-0.4,0.5-0.8,0.8-1.2l-8.6-62.6l17.8,0.9l2.8,61.1
	c3.3,3.1,3.4,8.4,0.2,11.7c0,0,0,0,0,0C321,437.4,316.8,437.9,313.6,435.9L313.6,435.9z"/>
<path id="Path_31" class="st3" d="M323.1,362.6c-0.4,0.4-0.9,0.8-1.4,1l-16,6.1c-1.7,0.7-3.6-0.1-4.3-1.8L287.2,336
	c-3.1-6.4-0.4-14.2,6.1-17.3c1-0.5,2-0.8,3.1-1c1.8-0.4,3.6-0.3,5.3,0.1c4.3,0.9,7.8,4,9.3,8.1l12.6,33.4
	C324.1,360.4,323.9,361.8,323.1,362.6z"/>
<path id="Path_32" class="st2" d="M239.6,588.7h-11.1l-4-43l15.1,0.2V588.7z"/>
<path id="Path_33" class="st4" d="M220.6,585.6H242v13.5h-34.9c0-7.4,6-13.5,13.4-13.5C220.5,585.6,220.6,585.6,220.6,585.6z"/>
<path id="Path_34" class="st2" d="M291.2,588.7h-11.1l-5.3-42.8h16.4V588.7z"/>
<path id="Path_35" class="st4" d="M272.1,585.6h21.4v13.5h-34.9C258.6,591.7,264.7,585.7,272.1,585.6z"/>
<path id="Path_36" class="st4" d="M292.6,573.5l-17.4-1.3c-2.1-0.2-3.7-1.8-3.8-3.9l-3.9-80.3c-0.1-1.7-1.6-3.1-3.3-3
	c-1.4,0.1-2.6,1.1-2.9,2.5L245,566.7c-0.4,2-2.3,3.4-4.3,3.2l-15.7-1.3c-2.2-0.2-3.9-2.1-3.7-4.4c0,0,0,0,0,0v-0.1L235.9,418
	c0.2-2.2,2.2-3.8,4.4-3.6c0,0,0.1,0,0.1,0c0.2,0,0.3,0,0.5,0.1l55.6,12.1c1.9,0.4,3.2,2.1,3.2,4.1l-2.6,138.9c0,2.2-1.8,4-4.1,4
	c0,0,0,0,0,0C292.9,573.6,292.7,573.5,292.6,573.5z"/>
<circle id="Ellipse_3" class="st2" cx="277.3" cy="273.7" r="22.2"/>
<path id="Path_37" class="st3" d="M242.8,429.4c-4.3-3.9-6.7-9.5-6.6-15.3c0-31.9,27.6-103.3,28.5-105.5c0.1-0.5,0.8-0.8,4.6-3.4
	s9.4-3,16.4-1.2c1.5,0.3,2.6,1.5,2.9,3l1.3,1.9c0.2,1,0.9,1.8,1.8,2.2c5.7,2.4,23.8,13.5,17.6,55.1c-5.7,38.7-8.1,61.4-8.8,69.4
	c-0.2,2-1.7,3.5-3.7,3.7c-2.8,0.3-7.6,0.6-13.3,0.6C270.5,439.9,252.4,438.1,242.8,429.4z"/>
<path id="Path_38" class="st2" d="M216.3,417.5c-2-4.1-0.3-9,3.8-11c0,0,0,0,0,0c0.4-0.2,0.9-0.4,1.4-0.5l27.8-56.8l14.3,10.7
	l-31.7,52.3c0.9,4.5-1.9,8.9-6.4,9.8C221.7,422.9,218,421,216.3,417.5z"/>
<path id="Path_39" class="st3" d="M265.1,362c-0.5,0.2-1.2,0.2-1.7,0l-16.7-3.9c-1.7-0.4-2.9-2.1-2.6-3.9l6-34.4
	c0.5-3.2,2.2-6.1,4.7-8.2c3.7-3,8.7-3.7,13.1-1.8c1.7,0.7,3.2,1.7,4.4,3c3,3.2,4.2,7.6,3.2,11.9l-8.1,34.8
	C267.1,360.7,266.2,361.6,265.1,362z"/>
<path id="Path_40" class="st4" d="M272.1,293.8c-2.2-2.2-3.2-5.4-2.6-8.5c0.8-4.1,1.2-6.7,1.3-7.7l0,0c0.3-3.3-3-6-6.3-6.4h-0.3
	c0.1,0.1,0.2,0.2,0.3,0.2c0.6,0.6,1.4,1.3,1.2,2.1c-0.1,0.5-0.5,0.8-1.3,1c-5.2,1.4-9.1,0.1-12.5-4.2c-0.9-1.2-1.6-2.7-1.9-4.2
	c-1.2-5.9,2-11,4.9-14.2c2.4-2.6,6.3-5.8,11.2-6.1c3.8-0.2,8.4,2,9.7,5.9c1.3-1.9,3.5-3.1,5.8-3.2c2.6-0.1,5.2,0.7,7.4,2.1
	c10.8,6.2,15.4,20.9,10.1,32.1c-3.3,7.1-10.5,12.3-18.8,13.7c-0.5,0.1-1.1,0.1-1.6,0.1C276.2,296.6,273.8,295.7,272.1,293.8z"/>
<path id="Path_41" class="st5" d="M167.9,599.5h176.4c0.5,0,0.9-0.4,0.9-0.9c0-0.5-0.4-0.9-0.9-0.9H167.9c-0.5,0-0.9,0.4-0.9,0.9
	C167,599.1,167.4,599.5,167.9,599.5z"/>
<a class="svg-link" xlink:href="https://namoothaj.net/infographics" >
	<g>
		<path class="st5" d="M334.9,201.9H209.4c-3.7,0-6.8-3-6.8-6.7c0,0,0-0.1,0-0.1V36.3c0-3.7,3-6.8,6.7-6.8c0,0,0.1,0,0.1,0h125.5
			c3.7,0,6.8,3,6.8,6.7c0,0,0,0.1,0,0.1v158.8c0,3.7-3,6.8-6.7,6.8C335,201.9,334.9,201.9,334.9,201.9z"/>
		<path class="st6" d="M209.4,31c-2.9,0-5.3,2.4-5.3,5.3v158.8c0,2.9,2.4,5.3,5.3,5.3h125.5c2.9,0,5.3-2.4,5.3-5.3V36.3
			c0-2.9-2.4-5.3-5.3-5.3H209.4z"/>
		<path id="Path_8" class="st1" d="M261.7,105.8h-27.6c-1.9,0-3.4-1.5-3.4-3.3c0,0,0,0,0-0.1V69.8c0-1.9,1.5-3.4,3.3-3.4
			c0,0,0,0,0.1,0h27.6c1.9,0,3.4,1.5,3.4,3.3c0,0,0,0,0,0.1v32.6C265.1,104.3,263.6,105.8,261.7,105.8
			C261.7,105.8,261.7,105.8,261.7,105.8z"/>
		<path id="Path_9" class="st3" d="M315.4,121h-27.6c-1.9,0-3.4-1.5-3.4-3.3c0,0,0,0,0-0.1V85c0-1.9,1.5-3.4,3.3-3.4c0,0,0,0,0.1,0
			h27.6c1.9,0,3.4,1.5,3.4,3.3c0,0,0,0,0,0.1v32.6C318.8,119.5,317.3,121,315.4,121z"/>
		<path id="Path_10" class="st1" d="M272.3,167.1h-27.6c-1.9,0-3.4-1.5-3.4-3.3c0,0,0,0,0-0.1v-32.6c0-1.9,1.5-3.4,3.3-3.4
			c0,0,0,0,0.1,0h27.6c1.9,0,3.4,1.5,3.4,3.3c0,0,0,0,0,0.1v32.6C275.7,165.6,274.2,167.1,272.3,167.1
			C272.3,167.1,272.3,167.1,272.3,167.1z"/>
		<g>
			<path d="M212.5,19.8V7.6h1.7v12.1H212.5z"/>
			<path d="M217.4,19.8v-8.5h1.5v1.4h0.3c0.2-0.4,0.6-0.8,1.1-1.1c0.5-0.3,1.3-0.5,2.3-0.5c0.7,0,1.4,0.1,2,0.4
				c0.6,0.3,1,0.7,1.4,1.2c0.3,0.5,0.5,1.2,0.5,1.9v5.1h-1.6v-5c0-0.8-0.2-1.5-0.7-1.8c-0.5-0.4-1.1-0.6-2-0.6
				c-0.9,0-1.7,0.3-2.3,0.8s-0.9,1.3-0.9,2.4v4.3H217.4z"/>
			<path d="M231.3,19.8v-7.3h-3v-1.2h3V9.1c0-0.5,0.1-0.8,0.4-1.1c0.3-0.3,0.7-0.4,1.3-0.4h2.5v1.2h-2c-0.4,0-0.6,0.2-0.6,0.5v2h3.1
				v1.2h-3.1v7.3H231.3z"/>
			<path d="M242.3,20c-1,0-1.9-0.2-2.6-0.5c-0.8-0.4-1.3-0.9-1.8-1.5s-0.6-1.4-0.6-2.3v-0.2c0-0.9,0.2-1.6,0.6-2.3
				c0.4-0.7,1-1.2,1.8-1.5c0.8-0.4,1.6-0.5,2.6-0.5c1,0,1.9,0.2,2.6,0.5c0.8,0.4,1.3,0.9,1.8,1.5c0.4,0.7,0.6,1.4,0.6,2.3v0.2
				c0,0.9-0.2,1.7-0.6,2.3c-0.4,0.7-1,1.2-1.8,1.5C244.1,19.8,243.2,20,242.3,20z M242.3,18.8c1,0,1.9-0.3,2.5-0.9s0.9-1.3,0.9-2.3
				v-0.2c0-1-0.3-1.7-0.9-2.3c-0.6-0.6-1.4-0.9-2.5-0.9c-1,0-1.9,0.3-2.5,0.9c-0.6,0.6-0.9,1.3-0.9,2.3v0.2c0,1,0.3,1.7,0.9,2.3
				C240.4,18.5,241.2,18.8,242.3,18.8z"/>
			<path d="M249.6,15.6v-0.2c0-0.9,0.2-1.7,0.6-2.3c0.4-0.6,1-1.1,1.7-1.5c0.7-0.3,1.5-0.5,2.3-0.5c1,0,1.8,0.2,2.4,0.5
				s1,0.7,1.2,1.1h0.3v-1.4h1.5v10.5c0,0.5-0.1,0.8-0.4,1.1c-0.3,0.3-0.7,0.4-1.3,0.4h-6.6V22h6.2c0.4,0,0.6-0.2,0.6-0.5v-3.2h-0.3
				c-0.2,0.3-0.4,0.5-0.7,0.7c-0.3,0.2-0.7,0.4-1.1,0.6c-0.5,0.2-1,0.2-1.7,0.2c-0.8,0-1.6-0.2-2.3-0.5c-0.7-0.3-1.3-0.8-1.7-1.5
				S249.6,16.5,249.6,15.6z M254.7,18.7c1,0,1.8-0.3,2.5-0.8s1-1.3,1-2.3v-0.1c0-1-0.3-1.7-1-2.3s-1.5-0.8-2.5-0.8
				c-1,0-1.8,0.3-2.5,0.8c-0.6,0.5-1,1.3-1,2.3v0.1c0,1,0.3,1.7,1,2.3C252.8,18.4,253.7,18.7,254.7,18.7z"/>
			<path d="M262.9,19.8v-8.5h1.5v1h0.3c0.2-0.4,0.4-0.6,0.8-0.8c0.4-0.2,0.8-0.3,1.4-0.3h1.2v1.2h-1.3c-0.7,0-1.3,0.2-1.7,0.5
				c-0.4,0.3-0.6,0.9-0.6,1.6v5.2H262.9z"/>
			<path d="M273.1,20c-0.7,0-1.3-0.1-1.9-0.3c-0.6-0.2-1-0.5-1.3-0.9c-0.3-0.4-0.5-0.9-0.5-1.4c0-0.6,0.2-1.1,0.5-1.4
				s0.8-0.7,1.3-0.8c0.6-0.2,1.2-0.3,1.9-0.3h3.3v-0.6c0-0.6-0.2-1.1-0.6-1.4s-1-0.5-1.8-0.5c-0.8,0-1.4,0.2-1.8,0.5
				c-0.4,0.3-0.7,0.8-0.9,1.3l-1.5-0.4c0.2-0.5,0.4-0.9,0.8-1.3c0.3-0.4,0.8-0.7,1.4-0.9c0.6-0.2,1.3-0.4,2.1-0.4
				c1.3,0,2.2,0.3,2.9,0.8c0.7,0.6,1,1.3,1,2.4v3.8c0,0.3,0.2,0.5,0.6,0.5h0.9v1.2h-1.4c-0.4,0-0.8-0.1-1.1-0.3
				c-0.3-0.2-0.4-0.5-0.4-0.9v-0.1h-0.2c-0.1,0.2-0.3,0.4-0.6,0.7c-0.2,0.2-0.6,0.4-1,0.6C274.4,19.9,273.8,20,273.1,20z
				 M273.3,18.8c0.9,0,1.7-0.2,2.3-0.7c0.6-0.5,0.9-1.2,0.9-2v-0.2h-3.2c-0.6,0-1.1,0.1-1.6,0.4c-0.4,0.2-0.6,0.6-0.6,1.1
				c0,0.5,0.2,0.8,0.6,1.1C272.1,18.7,272.7,18.8,273.3,18.8z"/>
			<path d="M281.6,23.2V11.3h1.5v1.4h0.3c0.3-0.4,0.7-0.8,1.2-1.1s1.4-0.5,2.4-0.5c0.8,0,1.6,0.2,2.3,0.5c0.7,0.4,1.3,0.9,1.7,1.5
				c0.4,0.6,0.6,1.4,0.6,2.3v0.2c0,0.9-0.2,1.7-0.6,2.3s-1,1.2-1.7,1.5s-1.5,0.5-2.3,0.5c-0.7,0-1.3-0.1-1.7-0.2
				c-0.5-0.2-0.9-0.4-1.1-0.6c-0.3-0.2-0.5-0.5-0.7-0.7h-0.3v4.8H281.6z M286.6,18.8c1,0,1.8-0.3,2.5-0.8c0.6-0.6,1-1.3,1-2.3v-0.2
				c0-1-0.3-1.8-1-2.3c-0.6-0.6-1.5-0.8-2.5-0.8c-1,0-1.8,0.3-2.5,0.8c-0.6,0.6-1,1.3-1,2.3v0.2c0,1,0.3,1.8,1,2.3
				C284.8,18.5,285.6,18.8,286.6,18.8z"/>
			<path d="M294.5,19.8V7.6h1.6v5h0.3c0.1-0.3,0.3-0.5,0.6-0.7s0.6-0.4,1.1-0.6c0.4-0.1,1-0.2,1.6-0.2c0.7,0,1.4,0.1,2,0.4
				c0.6,0.3,1,0.7,1.4,1.2s0.5,1.2,0.5,1.9v5.1H302v-5c0-0.8-0.2-1.5-0.7-1.8c-0.5-0.4-1.1-0.6-2-0.6c-0.9,0-1.7,0.3-2.3,0.8
				c-0.6,0.5-0.9,1.3-0.9,2.4v4.3H294.5z"/>
			<path d="M307.6,10c-0.3,0-0.6-0.1-0.9-0.3c-0.2-0.2-0.3-0.4-0.3-0.7c0-0.3,0.1-0.6,0.3-0.8c0.2-0.2,0.5-0.3,0.9-0.3
				s0.6,0.1,0.9,0.3c0.2,0.2,0.3,0.5,0.3,0.8c0,0.3-0.1,0.5-0.3,0.7C308.2,9.9,307.9,10,307.6,10z M306.8,19.8v-8.5h1.6v8.5H306.8z"
				/>
			<path d="M316.2,20c-0.9,0-1.8-0.2-2.5-0.5c-0.8-0.4-1.3-0.9-1.8-1.5c-0.4-0.7-0.7-1.4-0.7-2.3v-0.2c0-0.9,0.2-1.7,0.7-2.3
				c0.4-0.7,1-1.2,1.8-1.5c0.8-0.4,1.6-0.5,2.5-0.5c0.9,0,1.7,0.1,2.4,0.5c0.7,0.3,1.2,0.7,1.6,1.2c0.4,0.5,0.6,1,0.7,1.6l-1.5,0.3
				c-0.1-0.4-0.2-0.8-0.5-1.1c-0.2-0.3-0.6-0.6-1-0.8c-0.4-0.2-1-0.3-1.6-0.3c-0.7,0-1.2,0.1-1.8,0.4c-0.5,0.3-0.9,0.6-1.2,1.1
				s-0.5,1-0.5,1.7v0.2c0,0.7,0.2,1.2,0.5,1.7s0.7,0.8,1.2,1.1c0.5,0.3,1.1,0.4,1.8,0.4c1,0,1.7-0.2,2.2-0.7c0.5-0.4,0.8-1,1-1.6
				l1.6,0.3c-0.1,0.6-0.4,1.1-0.8,1.6c-0.4,0.5-0.9,0.9-1.6,1.2S317.1,20,316.2,20z"/>
			<path d="M327.6,20c-1.2,0-2.2-0.2-3.1-0.7c-0.8-0.5-1.3-1.3-1.5-2.3l1.5-0.3c0.1,0.6,0.3,1,0.6,1.3c0.3,0.3,0.7,0.5,1.1,0.7
				s0.9,0.2,1.4,0.2c0.7,0,1.3-0.1,1.7-0.4c0.4-0.3,0.6-0.6,0.6-1c0-0.4-0.2-0.7-0.6-0.9c-0.4-0.2-1-0.3-1.7-0.4l-0.8-0.1
				c-0.6-0.1-1.2-0.2-1.7-0.4c-0.5-0.2-0.9-0.5-1.2-0.8s-0.5-0.8-0.5-1.3c0-0.8,0.3-1.4,1-1.8c0.7-0.4,1.6-0.6,2.7-0.6
				c1.1,0,2,0.2,2.7,0.6c0.7,0.4,1.1,1,1.3,1.8l-1.5,0.3c-0.1-0.6-0.4-1-0.9-1.3c-0.5-0.2-1-0.4-1.7-0.4s-1.2,0.1-1.6,0.3
				s-0.6,0.5-0.6,0.9c0,0.4,0.2,0.7,0.6,0.9c0.4,0.2,0.9,0.3,1.5,0.4l0.8,0.1c0.7,0.1,1.3,0.2,1.9,0.4c0.6,0.2,1,0.4,1.3,0.8
				c0.3,0.3,0.5,0.8,0.5,1.3c0,0.8-0.4,1.5-1.1,1.9C329.7,19.8,328.8,20,327.6,20z"/>
		</g>
	</g>
</a>
<a class="svg-link" xlink:href="https://namoothaj.net/slides" >
	<g>
		<path class="st5" d="M537.5,365.2H412c-3.8,0-6.8-3-6.8-6.8V199.6c0-3.7,3-6.8,6.7-6.8c0,0,0.1,0,0.1,0h125.5c3.8,0,6.8,3,6.8,6.8
			v158.8C544.3,362.2,541.3,365.2,537.5,365.2z"/>
		<path class="st6" d="M412,194.3c-2.9,0-5.3,2.4-5.3,5.3v158.8c0,2.9,2.4,5.3,5.3,5.3h125.5c2.9,0,5.3-2.4,5.3-5.3V199.6
			c0-2.9-2.4-5.3-5.3-5.3L412,194.3z"/>
		<path id="Path_12" class="st1" d="M496.3,228h-43.1c-1.7,0-3-1.3-3-3c0-1.6,1.4-3,3-3h43.1c1.7,0,3,1.3,3,3S498,228,496.3,228
			L496.3,228z"/>
		<path id="Path_13" class="st3" d="M517.5,256.7H432c-1.7,0-3-1.3-3-3c0-1.6,1.4-3,3-3h85.4c1.7,0,3,1.4,3,3.1c0,0,0,0,0,0
			C520.4,255.4,519.1,256.7,517.5,256.7z"/>
		<path id="Path_14" class="st3" d="M517.5,272.6H432c-1.7,0-3-1.4-3-3.1c0,0,0,0,0,0c0-1.6,1.4-3,3-3h85.4c1.7,0,3,1.4,3,3.1
			C520.4,271.3,519.1,272.6,517.5,272.6z"/>
		<path id="Path_15" class="st3" d="M517.5,288.4H432c-1.7,0-3-1.3-3-3c0-1.6,1.4-3,3-3h85.4c1.7,0,3,1.3,3,3
			C520.4,287.1,519.1,288.4,517.5,288.4z"/>
		<path id="Path_16" class="st3" d="M517.5,304.3H432c-1.7,0-3-1.3-3-3c0-1.6,1.4-3,3-3h85.4c1.7,0,3,1.3,3,3
			C520.4,303,519.1,304.3,517.5,304.3z"/>
		<path id="Path_17" class="st3" d="M517.5,320.2H432c-1.7,0-3-1.3-3-3c0-1.6,1.4-3,3-3h85.4c1.7,0,3,1.3,3,3
			C520.4,318.9,519.1,320.2,517.5,320.2z"/>
		<path id="Path_18" class="st3" d="M517.5,336.1H432c-1.7,0-3-1.4-3-3.1c0,0,0,0,0,0c0-1.6,1.4-3,3-3h85.4c1.7,0,3,1.3,3,3
			C520.4,334.7,519.1,336.1,517.5,336.1z"/>
		<g>
			<path d="M443.6,184v-14h8.5v1.5h-6.8v4.7h6.2v1.5h-6.2v6.3H443.6z"/>
			<path d="M458.9,184.3c-1,0-1.9-0.2-2.6-0.6c-0.8-0.4-1.3-1-1.8-1.8c-0.4-0.8-0.6-1.6-0.6-2.7V179c0-1,0.2-1.9,0.6-2.7
				c0.4-0.8,1-1.3,1.8-1.8c0.8-0.4,1.6-0.6,2.6-0.6c1,0,1.9,0.2,2.6,0.6c0.8,0.4,1.3,1,1.8,1.8c0.4,0.8,0.6,1.6,0.6,2.7v0.3
				c0,1-0.2,1.9-0.6,2.7s-1,1.3-1.8,1.8C460.7,184.1,459.8,184.3,458.9,184.3z M458.9,182.9c1,0,1.9-0.3,2.5-1
				c0.6-0.7,0.9-1.6,0.9-2.7v-0.2c0-1.1-0.3-2-0.9-2.7c-0.6-0.7-1.5-1-2.5-1c-1,0-1.9,0.3-2.5,1c-0.6,0.7-0.9,1.5-0.9,2.7v0.2
				c0,1.1,0.3,2,0.9,2.7C457,182.6,457.8,182.9,458.9,182.9z"/>
			<path d="M466.7,184v-9.8h1.5v1.2h0.3c0.2-0.4,0.4-0.7,0.8-0.9c0.4-0.2,0.8-0.3,1.4-0.3h1.2v1.4h-1.3c-0.7,0-1.3,0.2-1.7,0.6
				c-0.4,0.4-0.6,1-0.6,1.8v6H466.7z"/>
			<path d="M474.2,184v-9.8h1.5v1.2h0.3c0.2-0.3,0.5-0.7,0.9-1c0.4-0.3,1-0.4,1.8-0.4c0.8,0,1.4,0.2,1.8,0.5c0.5,0.3,0.8,0.7,1,1.2
				h0.3c0.2-0.5,0.6-0.9,1-1.2c0.5-0.3,1.1-0.5,1.9-0.5c0.7,0,1.2,0.1,1.7,0.4c0.5,0.3,0.9,0.6,1.2,1.1c0.3,0.5,0.4,1.1,0.4,1.8v6.6
				h-1.6v-6.5c0-0.7-0.2-1.2-0.6-1.5c-0.4-0.4-0.9-0.6-1.6-0.6c-0.7,0-1.3,0.2-1.8,0.7s-0.7,1.1-0.7,2v5.9h-1.6v-6.5
				c0-0.7-0.2-1.2-0.6-1.5c-0.4-0.4-0.9-0.6-1.6-0.6c-0.7,0-1.3,0.2-1.8,0.7s-0.7,1.1-0.7,2v5.9H474.2z"/>
			<path d="M495.4,184.3c-1.2,0-2.2-0.3-3.1-0.8c-0.8-0.6-1.3-1.4-1.5-2.7l1.5-0.3c0.1,0.6,0.3,1.1,0.6,1.5c0.3,0.4,0.7,0.6,1.1,0.8
				s0.9,0.2,1.4,0.2c0.7,0,1.3-0.1,1.7-0.4c0.4-0.3,0.6-0.7,0.6-1.2c0-0.5-0.2-0.9-0.6-1.1c-0.4-0.2-1-0.4-1.7-0.5l-0.8-0.1
				c-0.6-0.1-1.2-0.3-1.7-0.5c-0.5-0.2-0.9-0.5-1.2-0.9s-0.5-0.9-0.5-1.5c0-0.9,0.3-1.6,1-2.1c0.7-0.5,1.6-0.7,2.7-0.7
				c1.1,0,2,0.3,2.7,0.8s1.1,1.2,1.3,2.1l-1.5,0.4c-0.1-0.7-0.4-1.2-0.9-1.5c-0.5-0.3-1-0.4-1.7-0.4s-1.2,0.1-1.6,0.4
				c-0.4,0.2-0.6,0.6-0.6,1.1c0,0.5,0.2,0.8,0.6,1c0.4,0.2,0.9,0.4,1.5,0.5l0.8,0.1c0.7,0.1,1.3,0.3,1.9,0.5c0.6,0.2,1,0.5,1.3,0.9
				c0.3,0.4,0.5,0.9,0.5,1.5c0,1-0.4,1.7-1.1,2.2C497.5,184.1,496.6,184.3,495.4,184.3z"/>
		</g>
	</g>
</a>
<a class="svg-link" xlink:href="https://namoothaj.net/forms" >
	<g>
		<path class="st5" d="M132.3,365.2H6.8c-3.7,0-6.8-3-6.8-6.7c0,0,0-0.1,0-0.1V199.6c0-3.7,3-6.8,6.7-6.8c0,0,0.1,0,0.1,0h125.5
			c3.7,0,6.8,3,6.8,6.7c0,0,0,0.1,0,0.1v158.8C139.1,362.2,136.1,365.2,132.3,365.2z"/>
		<path class="st6" d="M6.8,194.3c-2.9,0-5.3,2.4-5.3,5.3v158.8c0,2.9,2.4,5.3,5.3,5.3h125.5c2.9,0,5.3-2.4,5.3-5.3V199.6
			c0-2.9-2.4-5.3-5.3-5.3L6.8,194.3z"/>
		<path id="Path_20" class="st5" d="M112.4,230.3H74.6c-1.7,0-3-1.3-3-3c0-1.6,1.4-3,3-3h37.8c1.7,0,3,1.3,3.1,3
			c0,1.7-1.3,3.1-3,3.1c0,0,0,0,0,0C112.5,230.3,112.5,230.3,112.4,230.3z"/>
		<path id="Path_21" class="st5" d="M112.4,246.2H74.6c-1.7,0-3-1.3-3-3c0-1.6,1.4-3,3-3h37.8c1.7,0,3,1.3,3.1,3
			c0,1.7-1.3,3.1-3,3.1c0,0,0,0,0,0C112.5,246.2,112.5,246.2,112.4,246.2z"/>
		<path id="Path_22" class="st1" d="M55.2,255.2H27.6c-1.9,0-3.4-1.5-3.4-3.3c0,0,0,0,0-0.1v-32.6c0-1.9,1.5-3.4,3.3-3.4
			c0,0,0,0,0.1,0h27.6c1.9,0,3.4,1.5,3.4,3.3c0,0,0,0,0,0.1v32.6C58.6,253.7,57.1,255.2,55.2,255.2
			C55.2,255.2,55.2,255.2,55.2,255.2z"/>
		<path id="Path_23" class="st3" d="M112.2,278.7H26.7c-1.7,0-3-1.4-3-3.1c0,0,0,0,0,0c0-1.6,1.4-3,3-3h85.4c1.7,0,3,1.4,3,3.1
			C115.1,277.4,113.8,278.7,112.2,278.7z"/>
		<path id="Path_24" class="st3" d="M112.2,294.6H26.7c-1.7,0-3-1.3-3-3c0-1.6,1.4-3,3-3h85.4c1.7,0,3,1.3,3,3
			C115.1,293.3,113.8,294.6,112.2,294.6z"/>
		<path id="Path_25" class="st3" d="M112.2,310.4H26.7c-1.7,0-3-1.3-3-3c0-1.6,1.4-3,3-3h85.4c1.7,0,3,1.4,3,3.1c0,0,0,0,0,0
			C115.1,309.1,113.8,310.4,112.2,310.4z"/>
		<path id="Path_26" class="st3" d="M112.2,326.3H26.7c-1.7,0-3-1.4-3-3.1c0,0,0,0,0,0c0-1.6,1.4-3,3-3h85.4c1.7,0,3,1.4,3,3.1
			c0,0,0,0,0,0C115.1,325,113.9,326.3,112.2,326.3C112.2,326.3,112.2,326.3,112.2,326.3z"/>
		<path id="Path_27" class="st3" d="M112.2,342.2H26.7c-1.7,0-3-1.3-3-3c0-1.6,1.4-3,3-3h85.4c1.7,0,3,1.3,3,3
			C115.1,340.9,113.8,342.2,112.2,342.2z"/>
		<g>
			<path d="M44.7,184.3c-1,0-1.9-0.2-2.7-0.5c-0.8-0.4-1.4-0.9-1.9-1.6c-0.5-0.7-0.7-1.6-0.7-2.7V179H41v0.4c0,1.2,0.3,2,1,2.6
				c0.7,0.6,1.6,0.8,2.6,0.8c1.1,0,1.9-0.2,2.5-0.7s0.9-1.1,0.9-1.9c0-0.5-0.1-0.9-0.4-1.2c-0.3-0.3-0.6-0.6-1.1-0.8
				c-0.5-0.2-1-0.4-1.6-0.5l-1-0.3c-0.8-0.2-1.5-0.5-2.2-0.8s-1.1-0.7-1.5-1.2s-0.5-1.1-0.5-1.9s0.2-1.5,0.6-2s0.9-1,1.7-1.3
				s1.5-0.5,2.5-0.5c0.9,0,1.8,0.2,2.6,0.5c0.8,0.3,1.3,0.8,1.8,1.4c0.4,0.6,0.7,1.4,0.7,2.4v0.8h-1.7V174c0-0.7-0.1-1.2-0.4-1.6
				c-0.3-0.4-0.7-0.7-1.2-0.9s-1.1-0.3-1.7-0.3c-0.9,0-1.7,0.2-2.2,0.6c-0.6,0.4-0.8,1-0.8,1.7c0,0.5,0.1,0.9,0.4,1.2
				c0.2,0.3,0.6,0.6,1,0.8c0.4,0.2,1,0.4,1.6,0.5l1,0.3c0.8,0.2,1.5,0.4,2.2,0.7c0.6,0.3,1.2,0.7,1.5,1.2c0.4,0.5,0.6,1.2,0.6,2
				s-0.2,1.5-0.6,2.2c-0.4,0.6-1,1.1-1.8,1.4C46.6,184.1,45.7,184.3,44.7,184.3z"/>
			<path d="M52.3,184v-14h1.6v14H52.3z"/>
			<path d="M58,172.7c-0.3,0-0.6-0.1-0.9-0.3c-0.2-0.2-0.3-0.5-0.3-0.9c0-0.4,0.1-0.7,0.3-0.9s0.5-0.3,0.9-0.3s0.6,0.1,0.9,0.3
				c0.2,0.2,0.3,0.5,0.3,0.9c0,0.3-0.1,0.6-0.3,0.9C58.7,172.6,58.4,172.7,58,172.7z M57.2,184v-9.8h1.6v9.8H57.2z"/>
			<path d="M66.3,184.3c-0.8,0-1.6-0.2-2.3-0.6c-0.7-0.4-1.3-1-1.7-1.7c-0.4-0.8-0.6-1.7-0.6-2.7V179c0-1,0.2-1.9,0.6-2.7
				c0.4-0.8,1-1.3,1.7-1.7c0.7-0.4,1.5-0.6,2.3-0.6c0.7,0,1.3,0.1,1.7,0.3c0.5,0.2,0.9,0.4,1.1,0.7s0.5,0.6,0.7,0.9h0.3V170h1.6v14
				h-1.5v-1.6h-0.3c-0.3,0.5-0.7,0.9-1.2,1.3C68.1,184.1,67.3,184.3,66.3,184.3z M66.7,182.9c1,0,1.8-0.3,2.5-1
				c0.6-0.6,0.9-1.6,0.9-2.7V179c0-1.2-0.3-2.1-0.9-2.7c-0.6-0.6-1.5-1-2.5-1c-1,0-1.8,0.3-2.5,1c-0.6,0.6-1,1.5-1,2.7v0.2
				c0,1.2,0.3,2.1,1,2.7S65.7,182.9,66.7,182.9z"/>
			<path d="M79.5,184.3c-1,0-1.9-0.2-2.6-0.6c-0.7-0.4-1.3-1-1.7-1.8c-0.4-0.8-0.6-1.6-0.6-2.6V179c0-1,0.2-1.9,0.6-2.7
				c0.4-0.8,1-1.3,1.7-1.8c0.7-0.4,1.6-0.6,2.5-0.6c0.9,0,1.7,0.2,2.4,0.6c0.7,0.4,1.3,1,1.7,1.7c0.4,0.7,0.6,1.6,0.6,2.6v0.7h-8
				c0,1.1,0.4,1.9,1,2.5c0.6,0.6,1.4,0.9,2.4,0.9c0.8,0,1.5-0.2,1.9-0.6c0.5-0.4,0.8-0.8,1-1.4l1.4,0.7c-0.2,0.4-0.5,0.8-0.8,1.2
				c-0.4,0.4-0.8,0.8-1.4,1C81.1,184.1,80.4,184.3,79.5,184.3z M76.1,178.2h6.4c-0.1-0.9-0.4-1.6-0.9-2.1s-1.3-0.8-2.2-0.8
				c-0.9,0-1.6,0.3-2.2,0.8S76.3,177.3,76.1,178.2z"/>
			<path d="M90.8,184.3c-1.2,0-2.2-0.3-3.1-0.8c-0.8-0.6-1.3-1.4-1.5-2.7l1.5-0.3c0.1,0.6,0.3,1.1,0.6,1.5c0.3,0.4,0.7,0.6,1.1,0.8
				s0.9,0.2,1.4,0.2c0.7,0,1.3-0.1,1.7-0.4c0.4-0.3,0.6-0.7,0.6-1.2c0-0.5-0.2-0.9-0.6-1.1c-0.4-0.2-1-0.4-1.7-0.5l-0.8-0.1
				c-0.6-0.1-1.2-0.3-1.7-0.5c-0.5-0.2-0.9-0.5-1.2-0.9s-0.5-0.9-0.5-1.5c0-0.9,0.3-1.6,1-2.1c0.7-0.5,1.6-0.7,2.7-0.7
				c1.1,0,2,0.3,2.7,0.8s1.1,1.2,1.3,2.1l-1.5,0.4c-0.1-0.7-0.4-1.2-0.9-1.5c-0.5-0.3-1-0.4-1.7-0.4s-1.2,0.1-1.6,0.4
				c-0.4,0.2-0.6,0.6-0.6,1.1c0,0.5,0.2,0.8,0.6,1c0.4,0.2,0.9,0.4,1.5,0.5l0.8,0.1c0.7,0.1,1.3,0.3,1.9,0.5c0.6,0.2,1,0.5,1.3,0.9
				c0.3,0.4,0.5,0.9,0.5,1.5c0,1-0.4,1.7-1.1,2.2C92.9,184,92,184.3,90.8,184.3z"/>
		</g>
	</g>
</a>
</svg>
