<?xml version="1.0" encoding="utf-8"?>
<!-- Generator: Adobe Illustrator 25.0.1, SVG Export Plug-In . SVG Version: 6.00 Build 0)  -->
<svg version="1.1" id="Group_7" xmlns="http://www.w3.org/2000/svg" xmlns:xlink="http://www.w3.org/1999/xlink" x="0px" y="0px"
	 viewBox="0 0 544.3 599.5" style="enable-background:new 0 0 544.3 599.5;" xml:space="preserve">
<style type="text/css">
	.st0{fill:#E6E6E6;}
	.st1{fill:#002AAE;}
	.st2{fill:#A0616A;}
	.st3{fill:#CCCCCC;}
	.st4{fill:#2F2E41;}
	.st5{fill:#3F3D56;}
	.st6{fill:#FFFFFF;}
.svg-link .st5 {
-webkit-transition: all ease 0.3s;
-o-transition: all ease 0.3s;
transition: all ease 0.3s;		
}	
.svg-link:hover .st5 {
-webkit-filter: drop-shadow(3px 4px 0px rgba(0,0,0,0.2));
        filter: drop-shadow(3px 4px 0px rgba(0,0,0,0.2));
}		
</style>
<rect id="Rectangle_3" x="414.2" y="54.3" transform="matrix(0.6895 -0.7243 0.7243 0.6895 53.7537 332.713)" class="st0" width="1.5" height="98.8"/>
<path id="Path_3" class="st0" d="M451.3,128.7l-1.7,0.1l0.5,8.3l-8.3-0.1v1.7l10.1,0.1L451.3,128.7z"/>
<path id="Path_4" class="st0" d="M387,68.6v1.5l-7.5-0.1l0.5,7.4l-1.5,0.1l-0.6-9.1L387,68.6z"/>
<circle id="Ellipse_1" class="st0" cx="414.9" cy="103.7" r="8.3"/>
<rect id="Rectangle_4" x="81.7" y="103.4" transform="matrix(0.7243 -0.6895 0.6895 0.7243 -35.8591 118.6832)" class="st0" width="97.5" height="1.5"/>
<path id="Path_5" class="st0" d="M93.9,138.9l11-0.1V137l-9,0.1l0.6-9l-1.8-0.1L93.9,138.9z"/>
<path id="Path_6" class="st0" d="M167.9,68.5l-0.5,8.2l-1.4-0.1l0.4-6.7l-6.7,0.1v-1.4L167.9,68.5z"/>
<circle id="Ellipse_2" class="st0" cx="130.4" cy="104.1" r="8.2"/>
<path id="Path_28" class="st0" d="M179.8,457.2v-32.6c0-1.9,1.5-3.4,3.3-3.4c0,0,0,0,0.1,0h27.6c1.9,0,3.4,1.5,3.4,3.3
	c0,0,0,0,0,0.1v32.6c0,1.9-1.5,3.4-3.3,3.4c0,0,0,0-0.1,0h-27.6C181.3,460.7,179.8,459.2,179.8,457.2
	C179.8,457.3,179.8,457.3,179.8,457.2z"/>
<path id="Path_29" class="st1" d="M189.7,446.4v-32.6c0-1.9,1.5-3.4,3.3-3.4c0,0,0,0,0.1,0h27.6c1.9,0,3.4,1.5,3.4,3.3
	c0,0,0,0,0,0.1v32.6c0,1.9-1.5,3.4-3.3,3.4c0,0,0,0-0.1,0h-27.6C191.2,449.8,189.8,448.3,189.7,446.4L189.7,446.4z"/>
<path id="Path_30" class="st2" d="M313.6,435.9c-3.9-2.3-5.3-7.3-3-11.2c0.2-0.4,0.5-0.8,0.8-1.2l-8.6-62.6l17.8,0.9l2.8,61.1
	c3.3,3.1,3.4,8.4,0.2,11.7c0,0,0,0,0,0C321,437.4,316.8,437.9,313.6,435.9L313.6,435.9z"/>
<path id="Path_31" class="st3" d="M323.1,362.6c-0.4,0.4-0.9,0.8-1.4,1l-16,6.1c-1.7,0.7-3.6-0.1-4.3-1.8L287.2,336
	c-3.1-6.4-0.4-14.2,6.1-17.3c1-0.5,2-0.8,3.1-1c1.8-0.4,3.6-0.3,5.3,0.1c4.3,0.9,7.8,4,9.3,8.1l12.6,33.4
	C324.1,360.4,323.9,361.8,323.1,362.6z"/>
<path id="Path_32" class="st2" d="M239.6,588.7h-11.1l-4-43l15.1,0.2V588.7z"/>
<path id="Path_33" class="st4" d="M220.6,585.6H242v13.5h-34.9c0-7.4,6-13.5,13.4-13.5C220.5,585.6,220.6,585.6,220.6,585.6z"/>
<path id="Path_34" class="st2" d="M291.2,588.7h-11.1l-5.3-42.8h16.4V588.7z"/>
<path id="Path_35" class="st4" d="M272.1,585.6h21.4v13.5h-34.9C258.6,591.7,264.7,585.7,272.1,585.6z"/>
<path id="Path_36" class="st4" d="M292.6,573.5l-17.4-1.3c-2.1-0.2-3.7-1.8-3.8-3.9l-3.9-80.3c-0.1-1.7-1.6-3.1-3.3-3
	c-1.4,0.1-2.6,1.1-2.9,2.5L245,566.7c-0.4,2-2.3,3.4-4.3,3.2l-15.7-1.3c-2.2-0.2-3.9-2.1-3.7-4.4c0,0,0,0,0,0v-0.1L235.9,418
	c0.2-2.2,2.2-3.8,4.4-3.6c0,0,0.1,0,0.1,0c0.2,0,0.3,0,0.5,0.1l55.6,12.1c1.9,0.4,3.2,2.1,3.2,4.1l-2.6,138.9c0,2.2-1.8,4-4.1,4
	c0,0,0,0,0,0C292.9,573.6,292.7,573.5,292.6,573.5z"/>
<circle id="Ellipse_3" class="st2" cx="277.3" cy="273.7" r="22.2"/>
<path id="Path_37" class="st3" d="M242.8,429.4c-4.3-3.9-6.7-9.5-6.6-15.3c0-31.9,27.6-103.3,28.5-105.5c0.1-0.5,0.8-0.8,4.6-3.4
	s9.4-3,16.4-1.2c1.5,0.3,2.6,1.5,2.9,3l1.3,1.9c0.2,1,0.9,1.8,1.8,2.2c5.7,2.4,23.8,13.5,17.6,55.1c-5.7,38.7-8.1,61.4-8.8,69.4
	c-0.2,2-1.7,3.5-3.7,3.7c-2.8,0.3-7.6,0.6-13.3,0.6C270.5,439.9,252.4,438.1,242.8,429.4z"/>
<path id="Path_38" class="st2" d="M216.3,417.5c-2-4.1-0.3-9,3.8-11c0,0,0,0,0,0c0.4-0.2,0.9-0.4,1.4-0.5l27.8-56.8l14.3,10.7
	l-31.7,52.3c0.9,4.5-1.9,8.9-6.4,9.8C221.7,422.9,218,421,216.3,417.5z"/>
<path id="Path_39" class="st3" d="M265.1,362c-0.5,0.2-1.2,0.2-1.7,0l-16.7-3.9c-1.7-0.4-2.9-2.1-2.6-3.9l6-34.4
	c0.5-3.2,2.2-6.1,4.7-8.2c3.7-3,8.7-3.7,13.1-1.8c1.7,0.7,3.2,1.7,4.4,3c3,3.2,4.2,7.6,3.2,11.9l-8.1,34.8
	C267.1,360.7,266.2,361.6,265.1,362z"/>
<path id="Path_40" class="st4" d="M272.1,293.8c-2.2-2.2-3.2-5.4-2.6-8.5c0.8-4.1,1.2-6.7,1.3-7.7l0,0c0.3-3.3-3-6-6.3-6.4h-0.3
	c0.1,0.1,0.2,0.2,0.3,0.2c0.6,0.6,1.4,1.3,1.2,2.1c-0.1,0.5-0.5,0.8-1.3,1c-5.2,1.4-9.1,0.1-12.5-4.2c-0.9-1.2-1.6-2.7-1.9-4.2
	c-1.2-5.9,2-11,4.9-14.2c2.4-2.6,6.3-5.8,11.2-6.1c3.8-0.2,8.4,2,9.7,5.9c1.3-1.9,3.5-3.1,5.8-3.2c2.6-0.1,5.2,0.7,7.4,2.1
	c10.8,6.2,15.4,20.9,10.1,32.1c-3.3,7.1-10.5,12.3-18.8,13.7c-0.5,0.1-1.1,0.1-1.6,0.1C276.2,296.6,273.8,295.7,272.1,293.8z"/>
<path id="Path_41" class="st5" d="M167.9,599.5h176.4c0.5,0,0.9-0.4,0.9-0.9c0-0.5-0.4-0.9-0.9-0.9H167.9c-0.5,0-0.9,0.4-0.9,0.9
	C167,599.1,167.4,599.5,167.9,599.5z"/>
<a class="svg-link" xlink:href="/infographics" >
	<g>
		<path class="st5" d="M334.9,201.9H209.4c-3.7,0-6.8-3-6.8-6.7c0,0,0-0.1,0-0.1V36.3c0-3.7,3-6.8,6.7-6.8c0,0,0.1,0,0.1,0h125.5
			c3.7,0,6.8,3,6.8,6.7c0,0,0,0.1,0,0.1v158.8c0,3.7-3,6.8-6.7,6.8C335,201.9,334.9,201.9,334.9,201.9z"/>
		<path class="st6" d="M209.4,31c-2.9,0-5.3,2.4-5.3,5.3v158.8c0,2.9,2.4,5.3,5.3,5.3h125.5c2.9,0,5.3-2.4,5.3-5.3V36.3
			c0-2.9-2.4-5.3-5.3-5.3H209.4z"/>
		<path id="Path_8" class="st1" d="M261.7,105.8h-27.6c-1.9,0-3.4-1.5-3.4-3.3c0,0,0,0,0-0.1V69.8c0-1.9,1.5-3.4,3.3-3.4
			c0,0,0,0,0.1,0h27.6c1.9,0,3.4,1.5,3.4,3.3c0,0,0,0,0,0.1v32.6C265.1,104.3,263.6,105.8,261.7,105.8
			C261.7,105.8,261.7,105.8,261.7,105.8z"/>
		<path id="Path_9" class="st3" d="M315.4,121h-27.6c-1.9,0-3.4-1.5-3.4-3.3c0,0,0,0,0-0.1V85c0-1.9,1.5-3.4,3.3-3.4c0,0,0,0,0.1,0
			h27.6c1.9,0,3.4,1.5,3.4,3.3c0,0,0,0,0,0.1v32.6C318.8,119.5,317.3,121,315.4,121z"/>
		<path id="Path_10" class="st1" d="M272.3,167.1h-27.6c-1.9,0-3.4-1.5-3.4-3.3c0,0,0,0,0-0.1v-32.6c0-1.9,1.5-3.4,3.3-3.4
			c0,0,0,0,0.1,0h27.6c1.9,0,3.4,1.5,3.4,3.3c0,0,0,0,0,0.1v32.6C275.7,165.6,274.2,167.1,272.3,167.1
			C272.3,167.1,272.3,167.1,272.3,167.1z"/>
		<g>
			<path d="M211.7,7.1c0-0.1,0-0.2,0.1-0.2c0.1-0.1,0.2-0.1,0.3-0.1h1c0.1,0,0.2,0,0.3,0.1c0.1,0.1,0.1,0.1,0.1,0.2v12.3
				c0,0.1,0,0.2-0.1,0.2c-0.1,0.1-0.2,0.1-0.3,0.1h-1c-0.1,0-0.2,0-0.3-0.1c-0.1-0.1-0.1-0.1-0.1-0.2V7.1z"/>
			<path d="M217.7,15c0.2,0,0.3,0.1,0.3,0.3c0,0.1,0,0.3,0,0.4c0,0.2,0,0.3,0,0.5c0,0.2,0,0.3,0,0.4s0,0.3,0,0.3
				c0,0.6,0,1.2,0.1,1.7c0.1,0.5,0.3,1,0.6,1.3c0.3,0.4,0.8,0.7,1.4,0.9c0.6,0.2,1.4,0.3,2.4,0.3c0.3,0,0.7,0,1,0
				c0.3,0,0.6,0,0.9-0.1c0-0.3,0-0.6,0-0.8s0-0.5,0-0.7c0-0.2,0-0.4,0-0.6s0-0.4,0-0.7v-5.2c0-0.1,0-0.2,0.1-0.2
				c0.1-0.1,0.2-0.1,0.3-0.1h1c0.1,0,0.2,0,0.2,0.1s0.1,0.1,0.1,0.2v6.6c0,0.2,0,0.3,0,0.6c0,0.2,0,0.4,0,0.7c0,0.2,0,0.4,0,0.7
				c0,0.2,0,0.4,0,0.6c0,0.1,0,0.2-0.1,0.2c-0.1,0.1-0.2,0.1-0.3,0.1c-0.5,0.1-1,0.2-1.5,0.2c-0.5,0-1.1,0.1-1.6,0.1
				c-1.2,0-2.1-0.1-2.9-0.3c-0.8-0.2-1.4-0.6-1.9-1c-0.5-0.4-0.8-1-1.1-1.6c-0.2-0.6-0.3-1.4-0.3-2.2c0-0.1,0-0.3,0-0.4
				c0-0.2,0-0.4,0-0.6c0-0.2,0-0.4,0.1-0.6c0-0.2,0.1-0.4,0.1-0.6c0-0.1,0.1-0.2,0.1-0.3c0.1,0,0.1-0.1,0.3-0.1H217.7z M220.4,10.3
				c0-0.1,0-0.2,0.1-0.3s0.2-0.1,0.3-0.1h0.9c0.1,0,0.2,0,0.3,0.1c0.1,0.1,0.1,0.2,0.1,0.3v0.9c0,0.1,0,0.2-0.1,0.3
				c-0.1,0.1-0.2,0.1-0.3,0.1h-0.9c-0.1,0-0.2,0-0.3-0.1c-0.1-0.1-0.1-0.2-0.1-0.3V10.3z"/>
			<path d="M239.5,18.3c-0.3-0.3-0.5-0.6-0.7-1c-0.2-0.4-0.3-0.9-0.3-1.5v-0.4c0-1.1,0.4-2,1.2-2.7c0.8-0.6,2-1,3.4-1
				c0.5,0,1.1,0,1.6,0.1c0.5,0,1,0.1,1.4,0.2c0.1,0,0.2,0.1,0.2,0.1s0.1,0.1,0.1,0.2v4.5c0,0.2,0,0.4,0,0.6c0,0.2,0,0.5,0,0.7
				c0,0.2,0,0.4,0,0.6c0,0.2,0,0.4,0,0.6c0,0.2-0.2,0.3-0.5,0.3c-0.6,0-1.1,0.1-1.6,0.1c-0.5,0-1,0-1.5,0h-7.7
				c-1.2,0-2.3-0.1-3.1-0.3c-0.8-0.2-1.5-0.5-2-0.9c-0.5-0.4-0.8-0.9-1-1.4c-0.2-0.6-0.3-1.2-0.3-2c0-0.2,0-0.5,0-0.7
				c0-0.3,0.1-0.5,0.1-0.9c0-0.1,0.1-0.2,0.1-0.3s0.1-0.1,0.3-0.1h0.8c0.2,0,0.3,0.1,0.3,0.3c0,0.3,0,0.5,0,0.7c0,0.2,0,0.4,0,0.6
				c0,0.6,0.1,1,0.2,1.5c0.1,0.4,0.4,0.8,0.7,1.1c0.4,0.3,0.8,0.5,1.5,0.7c0.6,0.2,1.4,0.2,2.5,0.2H239.5z M240.3,15.8
				c0,0.8,0.2,1.4,0.6,1.9c0.4,0.4,1.1,0.7,2,0.7c0.3,0,0.6,0,1,0c0.3,0,0.7,0,1,0v-5.1c-0.3,0-0.5-0.1-0.8-0.1c-0.3,0-0.6,0-0.9,0
				c-0.9,0-1.6,0.2-2.1,0.6s-0.7,1-0.7,1.7V15.8z M242.1,8.5c0-0.1,0-0.2,0.1-0.3c0.1-0.1,0.2-0.1,0.3-0.1h0.9c0.1,0,0.2,0,0.3,0.1
				s0.1,0.2,0.1,0.3v0.9c0,0.1,0,0.2-0.1,0.3s-0.2,0.1-0.3,0.1h-0.9c-0.1,0-0.2,0-0.3-0.1c-0.1-0.1-0.1-0.2-0.1-0.3V8.5z"/>
			<path d="M250.1,22.7c0-0.2,0.1-0.2,0.3-0.2c0.2,0,0.5,0,0.9,0c0.3,0,0.6,0,0.8,0c0.5,0,1,0,1.4-0.1c0.4-0.1,0.8-0.2,1.1-0.3
				c0.3-0.1,0.5-0.3,0.7-0.6c0.2-0.3,0.3-0.6,0.3-1v-1c-0.1,0.1-0.2,0.1-0.4,0.2c-0.2,0-0.4,0.1-0.6,0.1c-0.2,0-0.4,0-0.7,0.1
				c-0.2,0-0.4,0-0.6,0c-1.2,0-2.2-0.3-2.9-0.9c-0.7-0.6-1.1-1.5-1.1-2.7v-0.4c0-1.2,0.4-2.2,1.2-2.9c0.8-0.7,2-1.1,3.5-1.1
				c0.5,0,1,0,1.5,0.1s0.9,0.1,1.3,0.2c0.1,0,0.2,0.1,0.3,0.1c0,0,0.1,0.1,0.1,0.2v7.9c0,0.7-0.1,1.3-0.4,1.8
				c-0.2,0.5-0.6,0.8-1,1.1c-0.4,0.3-0.9,0.5-1.5,0.6s-1.2,0.2-1.9,0.2c-0.1,0-0.3,0-0.5,0c-0.2,0-0.4,0-0.6,0c-0.2,0-0.4,0-0.6,0
				c-0.2,0-0.3,0-0.4,0c-0.1,0-0.2-0.1-0.3-0.1s-0.1-0.1-0.1-0.2V22.7z M255.6,13.2c-0.3,0-0.5,0-0.8-0.1c-0.3,0-0.6,0-0.9,0
				c-0.9,0-1.6,0.2-2.1,0.6c-0.5,0.4-0.8,1-0.8,1.8V16c0,0.8,0.2,1.4,0.6,1.8s1.1,0.6,2,0.6c0.5,0,1,0,1.3-0.1
				c0.4-0.1,0.6-0.2,0.6-0.5V13.2z"/>
			<path d="M260,20.3c0-0.2,0-0.5,0-0.8c0-0.3,0.1-0.6,0.1-0.8c0-0.1,0.1-0.2,0.1-0.3s0.2-0.1,0.3-0.1c0.1,0,0.2,0,0.3,0
				c0.1,0,0.3,0,0.5,0c0.2,0,0.4,0,0.6,0c0.2,0,0.4,0,0.5,0h5.7l-0.8-1.5l-0.4-0.9c-0.2-0.4-0.5-0.8-0.8-1.2
				c-0.3-0.3-0.6-0.6-0.9-0.8c-0.4-0.2-0.8-0.4-1.2-0.5c-0.4-0.1-1-0.2-1.5-0.2c-0.1,0-0.1,0-0.3,0c-0.1,0-0.2,0-0.4,0
				c-0.1,0-0.3,0-0.4,0c-0.1,0-0.3,0-0.4,0c-0.3,0-0.4-0.1-0.4-0.3v-0.7c0-0.1,0-0.2,0.1-0.2c0-0.1,0.1-0.1,0.3-0.1
				c0.6-0.1,1.2-0.2,1.8-0.2c0.7,0,1.3,0.1,1.8,0.2c0.6,0.1,1.1,0.3,1.6,0.6c0.5,0.3,1,0.7,1.4,1.2c0.4,0.5,0.9,1.2,1.2,2l0.2,0.4
				l0.8,1.9c0,0.1,0,0.2,0.1,0.2c0,0.1,0,0.2,0,0.3v0.6c0,0.1,0,0.2-0.1,0.3s-0.2,0.1-0.5,0.1h-6.1c-0.2,0-0.5,0-0.8,0
				c-0.3,0-0.6,0-0.8,0c0,0.2,0,0.3,0,0.4s0,0.2,0,0.3c0,1.7,0.9,2.5,2.5,2.5h0.1c0.2,0,0.4,0.1,0.4,0.3v0.7c0,0.1,0,0.2-0.1,0.2
				c0,0-0.1,0.1-0.3,0.1c-0.1,0-0.1,0-0.2,0c-0.1,0-0.1,0-0.1,0c-1.3,0-2.3-0.3-2.9-1C260.4,22.6,260,21.6,260,20.3z M264.9,21.2
				c0-0.1,0-0.2,0.1-0.3c0.1-0.1,0.2-0.1,0.3-0.1h0.8c0.1,0,0.2,0,0.3,0.1c0.1,0.1,0.2,0.2,0.2,0.3V22c0,0.1-0.1,0.2-0.2,0.3
				c-0.1,0.1-0.2,0.1-0.3,0.1h-0.8c-0.1,0-0.2,0-0.3-0.1c-0.1-0.1-0.1-0.2-0.1-0.3V21.2z"/>
			<path d="M270.2,22.7c0-0.2,0.1-0.2,0.3-0.2h0.4c0.4,0,0.8,0,1.1-0.1c0.3,0,0.5-0.1,0.7-0.2c0.2-0.1,0.3-0.3,0.4-0.5
				c0.1-0.2,0.1-0.5,0.1-0.9v-7.7c0-0.1,0-0.2,0.1-0.2s0.2-0.1,0.3-0.1h1c0.1,0,0.2,0,0.2,0.1s0.1,0.1,0.1,0.2v7.6
				c0,0.4,0,0.8-0.1,1.1s-0.2,0.7-0.3,0.9c-0.3,0.4-0.6,0.7-1.1,0.8c-0.5,0.2-1.1,0.2-1.9,0.2c-0.1,0-0.2,0-0.4,0
				c-0.2,0-0.4,0-0.5-0.1c-0.1,0-0.2-0.1-0.3-0.1s-0.1-0.1-0.1-0.2V22.7z"/>
			<path d="M278.3,7.1c0-0.1,0-0.2,0.1-0.2c0.1-0.1,0.2-0.1,0.3-0.1h1c0.1,0,0.2,0,0.3,0.1c0.1,0.1,0.1,0.1,0.1,0.2v12.3
				c0,0.1,0,0.2-0.1,0.2s-0.2,0.1-0.3,0.1h-1c-0.1,0-0.2,0-0.3-0.1s-0.1-0.1-0.1-0.2V7.1z"/>
			<path d="M293.6,18.3c-0.3-0.3-0.5-0.6-0.7-1c-0.2-0.4-0.3-0.9-0.3-1.5v-0.4c0-1.1,0.4-2,1.2-2.7c0.8-0.6,2-1,3.4-1
				c0.5,0,1.1,0,1.6,0.1s1,0.1,1.4,0.2c0.1,0,0.2,0.1,0.2,0.1s0.1,0.1,0.1,0.2v4.5c0,0.2,0,0.4,0,0.6c0,0.2,0,0.5,0,0.7
				c0,0.2,0,0.4,0,0.6s0,0.4,0,0.6c0,0.2-0.2,0.3-0.5,0.3c-0.6,0-1.1,0.1-1.6,0.1c-0.5,0-1,0-1.5,0h-7.7c-1.2,0-2.3-0.1-3.1-0.3
				s-1.5-0.5-2-0.9c-0.5-0.4-0.8-0.9-1-1.4s-0.3-1.2-0.3-2c0-0.2,0-0.5,0-0.7c0-0.3,0.1-0.5,0.2-0.9c0-0.1,0.1-0.2,0.1-0.3
				c0.1-0.1,0.1-0.1,0.3-0.1h0.8c0.2,0,0.3,0.1,0.3,0.3c0,0.3,0,0.5,0,0.7c0,0.2,0,0.4,0,0.6c0,0.6,0.1,1,0.2,1.5
				c0.1,0.4,0.4,0.8,0.7,1.1c0.4,0.3,0.8,0.5,1.5,0.7c0.6,0.2,1.4,0.2,2.5,0.2H293.6z M294.4,15.8c0,0.8,0.2,1.4,0.6,1.9
				c0.4,0.4,1.1,0.7,2,0.7c0.3,0,0.6,0,1,0s0.7,0,1,0v-5.1c-0.3,0-0.5-0.1-0.8-0.1c-0.3,0-0.6,0-0.9,0c-0.9,0-1.6,0.2-2.1,0.6
				c-0.5,0.4-0.7,1-0.7,1.7V15.8z M296.2,8.5c0-0.1,0-0.2,0.1-0.3c0.1-0.1,0.2-0.1,0.3-0.1h0.9c0.1,0,0.2,0,0.3,0.1
				c0.1,0.1,0.1,0.2,0.1,0.3v0.9c0,0.1,0,0.2-0.1,0.3c-0.1,0.1-0.2,0.1-0.3,0.1h-0.9c-0.1,0-0.2,0-0.3-0.1c-0.1-0.1-0.1-0.2-0.1-0.3
				V8.5z"/>
			<path d="M304.8,15c0.2,0,0.3,0.1,0.3,0.3c0,0.3-0.1,0.6-0.1,0.9c0,0.3-0.1,0.6-0.1,0.8c0,0.6,0,1.1,0.1,1.7s0.3,1,0.6,1.4
				c0.3,0.4,0.8,0.7,1.3,0.9c0.6,0.2,1.4,0.3,2.4,0.3c0.4,0,0.8,0,1.2,0c0.4,0,0.7-0.1,1.1-0.1c0-0.3,0-0.6,0-0.8s0-0.5,0-0.7
				c0-0.2,0-0.4,0-0.6s0-0.4,0-0.7v-1.9c0-1.2,0.4-2.1,1.2-2.7c0.8-0.5,1.9-0.8,3.4-0.8c0.4,0,0.8,0,1.3,0.1c0.5,0,0.9,0.1,1.2,0.2
				c0.1,0,0.2,0.1,0.2,0.1s0.1,0.1,0.1,0.2v6c0,0.1,0,0.2-0.1,0.2s-0.2,0.1-0.3,0.1h-0.9c-0.1,0-0.2,0-0.3-0.1s-0.1-0.1-0.1-0.2v-5
				c-0.3,0-0.5-0.1-0.7-0.1c-0.2,0-0.4,0-0.7,0c-0.4,0-0.8,0-1.2,0.1s-0.6,0.2-0.9,0.4c-0.2,0.2-0.4,0.4-0.5,0.7
				c-0.1,0.3-0.2,0.7-0.2,1.1v3.1c0,0.2,0,0.4,0,0.6c0,0.2,0,0.4,0,0.7c0,0.2,0,0.4,0,0.7c0,0.2,0,0.4,0,0.6c0,0.2-0.1,0.3-0.4,0.4
				c-0.5,0.1-1.1,0.1-1.7,0.2s-1.2,0.1-1.9,0.1c-1.2,0-2.2-0.1-3-0.4s-1.4-0.6-1.8-1c-0.5-0.5-0.8-1-1-1.7c-0.2-0.7-0.3-1.4-0.3-2.2
				c0-0.1,0-0.2,0-0.4c0-0.2,0-0.4,0-0.6c0-0.2,0-0.4,0.1-0.6c0-0.2,0.1-0.4,0.1-0.6c0-0.2,0.2-0.3,0.4-0.3H304.8z M305.7,24.5
				c0-0.1,0-0.2,0.1-0.3s0.2-0.1,0.3-0.1h0.8c0.1,0,0.2,0,0.3,0.1c0.1,0.1,0.1,0.2,0.1,0.3v0.9c0,0.1,0,0.2-0.1,0.3
				c-0.1,0.1-0.2,0.1-0.3,0.1h-0.8c-0.1,0-0.2,0-0.3-0.1c-0.1-0.1-0.1-0.2-0.1-0.3V24.5z M309,24.5c0-0.1,0-0.2,0.2-0.3
				c0.1-0.1,0.2-0.1,0.3-0.1h0.8c0.1,0,0.2,0,0.3,0.1s0.1,0.2,0.1,0.3v0.9c0,0.1,0,0.2-0.1,0.3c-0.1,0.1-0.2,0.1-0.3,0.1h-0.8
				c-0.1,0-0.2,0-0.3-0.1c-0.1-0.1-0.2-0.2-0.2-0.3V24.5z"/>
			<path d="M323,14.8c0.2,0,0.3,0.1,0.3,0.4c0,0.1,0,0.3,0,0.4s0,0.2,0,0.3c0,0.5,0.1,0.9,0.2,1.2c0.2,0.3,0.4,0.6,0.7,0.7
				c0.3,0.2,0.7,0.3,1.3,0.4s1.1,0.1,1.9,0.1h5.3c0.4,0,0.6,0,0.7-0.1c0.1-0.1,0.2-0.2,0.2-0.5V7.1c0-0.1,0-0.2,0.1-0.2
				c0.1-0.1,0.2-0.1,0.3-0.1h1c0.1,0,0.2,0,0.3,0.1c0.1,0.1,0.1,0.1,0.1,0.2v10c0,0.1,0,0.3,0,0.5s0,0.4,0,0.5c0,0.2,0,0.4,0,0.5
				c0,0.2,0,0.3,0,0.5c0,0.1-0.1,0.2-0.1,0.3c-0.1,0.1-0.2,0.2-0.3,0.2c-0.1,0-0.3,0.1-0.5,0.1c-0.2,0-0.4,0-0.7,0.1
				c-0.3,0-0.5,0-0.8,0c-0.3,0-0.5,0-0.7,0h-4.9c-1,0-1.8-0.1-2.5-0.2c-0.7-0.1-1.2-0.3-1.7-0.6c-0.4-0.3-0.8-0.6-1-1.1
				c-0.2-0.4-0.3-1-0.3-1.6c0-0.1,0-0.3,0-0.5c0-0.2,0-0.4,0.1-0.6c0.1-0.2,0.2-0.3,0.4-0.3H323z M326.3,13.7c0-0.1,0.1-0.2,0.4-0.2
				h0.3c-0.1-0.1-0.2-0.3-0.2-0.5c0-0.2-0.1-0.4-0.1-0.6c0-0.6,0.2-1,0.5-1.2s0.9-0.4,1.5-0.4c0.3,0,0.6,0,0.8,0.1
				c0.2,0,0.3,0.1,0.3,0.3v0.3c0,0.2-0.1,0.2-0.3,0.2c-0.1,0-0.2,0-0.4,0c-0.1,0-0.2,0-0.4,0c-0.4,0-0.6,0.1-0.8,0.2
				c-0.2,0.2-0.3,0.4-0.3,0.6c0,0.2,0,0.4,0.1,0.6c0.1,0.2,0.2,0.3,0.3,0.3h1.4c0.3,0,0.4,0.1,0.4,0.2v0.4c0,0.2-0.1,0.2-0.4,0.2h-3
				c-0.3,0-0.4-0.1-0.4-0.2V13.7z"/>
		</g>
	</g>
</a>
<a class="svg-link" xlink:href="/slides" >
	<g>
		<path class="st5" d="M537.5,365.2H412c-3.8,0-6.8-3-6.8-6.8V199.6c0-3.7,3-6.8,6.7-6.8c0,0,0.1,0,0.1,0h125.5c3.8,0,6.8,3,6.8,6.8
			v158.8C544.3,362.2,541.3,365.2,537.5,365.2z"/>
		<path class="st6" d="M412,194.3c-2.9,0-5.3,2.4-5.3,5.3v158.8c0,2.9,2.4,5.3,5.3,5.3h125.5c2.9,0,5.3-2.4,5.3-5.3V199.6
			c0-2.9-2.4-5.3-5.3-5.3L412,194.3z"/>
		<path id="Path_12" class="st1" d="M496.3,228h-43.1c-1.7,0-3-1.3-3-3c0-1.6,1.4-3,3-3h43.1c1.7,0,3,1.3,3,3S498,228,496.3,228
			L496.3,228z"/>
		<path id="Path_13" class="st3" d="M517.5,256.7H432c-1.7,0-3-1.3-3-3c0-1.6,1.4-3,3-3h85.4c1.7,0,3,1.4,3,3.1c0,0,0,0,0,0
			C520.4,255.4,519.1,256.7,517.5,256.7z"/>
		<path id="Path_14" class="st3" d="M517.5,272.6H432c-1.7,0-3-1.4-3-3.1c0,0,0,0,0,0c0-1.6,1.4-3,3-3h85.4c1.7,0,3,1.4,3,3.1
			C520.4,271.3,519.1,272.6,517.5,272.6z"/>
		<path id="Path_15" class="st3" d="M517.5,288.4H432c-1.7,0-3-1.3-3-3c0-1.6,1.4-3,3-3h85.4c1.7,0,3,1.3,3,3
			C520.4,287.1,519.1,288.4,517.5,288.4z"/>
		<path id="Path_16" class="st3" d="M517.5,304.3H432c-1.7,0-3-1.3-3-3c0-1.6,1.4-3,3-3h85.4c1.7,0,3,1.3,3,3
			C520.4,303,519.1,304.3,517.5,304.3z"/>
		<path id="Path_17" class="st3" d="M517.5,320.2H432c-1.7,0-3-1.3-3-3c0-1.6,1.4-3,3-3h85.4c1.7,0,3,1.3,3,3
			C520.4,318.9,519.1,320.2,517.5,320.2z"/>
		<path id="Path_18" class="st3" d="M517.5,336.1H432c-1.7,0-3-1.4-3-3.1c0,0,0,0,0,0c0-1.6,1.4-3,3-3h85.4c1.7,0,3,1.3,3,3
			C520.4,334.7,519.1,336.1,517.5,336.1z"/>
		<g>
			<path d="M435.8,169.4c0-0.1,0-0.2,0.1-0.3s0.2-0.1,0.3-0.1h1c0.1,0,0.2,0,0.3,0.1s0.1,0.2,0.1,0.3v14.2c0,0.1,0,0.2-0.1,0.3
				s-0.2,0.1-0.3,0.1h-1c-0.1,0-0.2,0-0.3-0.1s-0.1-0.2-0.1-0.3V169.4z"/>
			<path d="M441.8,178.5c0.2,0,0.3,0.1,0.3,0.4c0,0.3-0.1,0.6-0.1,1c0,0.3,0,0.6,0,0.8c0,0.7,0,1.3,0.1,2s0.3,1.1,0.6,1.6
				c0.3,0.5,0.8,0.8,1.4,1.1c0.6,0.3,1.4,0.4,2.5,0.4c0.3,0,0.6,0,0.9,0c0.3,0,0.6-0.1,0.9-0.1c0-0.4,0-0.7,0-1c0-0.3,0-0.5,0-0.8
				c0-0.3,0-0.5,0-0.7c0-0.2,0-0.5,0-0.8v-12.9c0-0.1,0-0.2,0.1-0.3c0.1-0.1,0.2-0.1,0.3-0.1h1c0.1,0,0.2,0,0.3,0.1
				c0.1,0.1,0.1,0.2,0.1,0.3v14.3c0,0.2,0,0.4,0,0.6s0,0.6,0,0.9c0,0.3,0,0.6,0,0.9s0,0.5,0,0.7c0,0.1-0.1,0.2-0.1,0.3
				c-0.1,0.1-0.2,0.1-0.3,0.1c-0.5,0.1-0.9,0.2-1.4,0.2c-0.5,0-1,0.1-1.6,0.1c-1.2,0-2.2-0.1-2.9-0.4c-0.8-0.3-1.4-0.7-1.9-1.2
				c-0.5-0.5-0.8-1.2-1-1.9c-0.2-0.8-0.3-1.6-0.3-2.6c0-0.1,0-0.3,0-0.5c0-0.2,0-0.4,0-0.7c0-0.2,0-0.5,0.1-0.7
				c0-0.2,0.1-0.4,0.1-0.6c0.1-0.3,0.2-0.4,0.4-0.4H441.8z"/>
			<path d="M454.3,178.5c0.2,0,0.3,0.1,0.3,0.4c0,0.2,0,0.3-0.1,0.5c0,0.2,0,0.4,0,0.5c0,0.2,0,0.3,0,0.5s0,0.3,0,0.4
				c0,0.7,0,1.3,0.1,1.9s0.3,1.1,0.6,1.5s0.8,0.8,1.3,1c0.6,0.2,1.4,0.4,2.4,0.4c0.2,0,0.5,0,0.7,0c0.3,0,0.6-0.1,0.9-0.1
				c0-0.4,0-0.7,0-1c0-0.3,0-0.6,0-0.8c0-0.2,0-0.5,0-0.7c0-0.2,0-0.5,0-0.8v-5.1c0-0.1,0-0.2,0.1-0.3s0.2-0.1,0.3-0.1h0.9
				c0.1,0,0.2,0,0.3,0.1c0.1,0.1,0.1,0.2,0.1,0.3v4.7c0.1,0.2,0.3,0.3,0.6,0.4c0.3,0.1,0.5,0.1,0.8,0.1h0.6c0.1,0,0.3,0,0.4,0
				s0.3-0.1,0.4-0.1c0.1,0,0.2-0.1,0.3-0.2c0.1-0.1,0.1-0.2,0.1-0.4v-5.1c0-0.1,0-0.2,0.1-0.3s0.2-0.1,0.3-0.1h0.9
				c0.1,0,0.2,0,0.3,0.1s0.1,0.2,0.1,0.3v5.3c0,0.1,0.1,0.2,0.2,0.3s0.3,0.1,0.4,0.1c0.2,0,0.3,0.1,0.5,0.1c0.2,0,0.4,0,0.5,0h0.6
				c0.4,0,0.6,0,0.8-0.1c0.1-0.1,0.2-0.3,0.2-0.6c0-0.9,0-1.9,0-2.8s0-2,0-3c0-0.1,0-0.2,0.1-0.3c0.1-0.1,0.2-0.1,0.3-0.1h0.9
				c0.1,0,0.2,0,0.3,0.1c0.1,0.1,0.1,0.2,0.1,0.3c0,0.5,0,0.9,0,1.2s0,0.7,0,1c0,0.3,0,0.7,0,1c0,0.3,0,0.7,0,1.1v0.7
				c0,0.2,0,0.3,0,0.5c0,0.2,0,0.4,0,0.6c0,0.2,0,0.4,0,0.6c0,0.2,0,0.4,0,0.5c0,0.1-0.1,0.3-0.1,0.4c-0.1,0.1-0.2,0.2-0.3,0.2
				c-0.1,0-0.3,0.1-0.4,0.1c-0.2,0-0.4,0-0.6,0.1c-0.2,0-0.4,0-0.6,0s-0.3,0-0.5,0h-0.3c-0.5,0-1,0-1.5-0.1c-0.5-0.1-1-0.3-1.3-0.5
				c-0.3,0.2-0.6,0.4-1,0.5s-0.9,0.1-1.4,0.1h-0.5c-0.2,0-0.5,0-0.7-0.1s-0.4-0.1-0.6-0.2c0,0.6,0,1.1,0,1.7c0,0.6,0,1,0,1.3
				c0,0.2-0.1,0.4-0.4,0.4c-0.9,0.2-1.9,0.3-2.8,0.3c-1.2,0-2.1-0.1-2.9-0.4c-0.8-0.3-1.4-0.6-1.9-1.1c-0.5-0.5-0.8-1.1-1-1.9
				c-0.2-0.7-0.3-1.6-0.3-2.5c0-0.1,0-0.3,0-0.5c0-0.2,0-0.5,0-0.7c0-0.2,0-0.5,0.1-0.8c0-0.3,0.1-0.5,0.1-0.7
				c0-0.3,0.2-0.4,0.4-0.4H454.3z M463.8,172.4c0-0.1,0-0.2,0.1-0.3c0.1-0.1,0.2-0.1,0.3-0.1h0.8c0.1,0,0.2,0,0.3,0.1
				c0.1,0.1,0.1,0.2,0.1,0.3v1c0,0.1,0,0.2-0.1,0.3c-0.1,0.1-0.2,0.1-0.3,0.1h-0.8c-0.1,0-0.2,0-0.3-0.1c-0.1-0.1-0.1-0.2-0.1-0.3
				V172.4z M465.4,170c0-0.1,0-0.2,0.1-0.3c0.1-0.1,0.2-0.1,0.3-0.1h0.7c0.1,0,0.2,0,0.3,0.1c0.1,0.1,0.1,0.2,0.1,0.3v0.9
				c0,0.1,0,0.2-0.1,0.3c-0.1,0.1-0.2,0.1-0.3,0.1h-0.7c-0.1,0-0.2,0-0.3-0.1c-0.1-0.1-0.1-0.2-0.1-0.3V170z M467,172.4
				c0-0.1,0-0.2,0.2-0.3c0.1-0.1,0.2-0.1,0.3-0.1h0.8c0.1,0,0.2,0,0.3,0.1c0.1,0.1,0.1,0.2,0.1,0.3v1c0,0.1,0,0.2-0.1,0.3
				c-0.1,0.1-0.2,0.1-0.3,0.1h-0.8c-0.1,0-0.2,0-0.3-0.1c-0.1-0.1-0.2-0.2-0.2-0.3V172.4z"/>
			<path d="M473,187.4c0-0.2,0.1-0.3,0.3-0.3h0.4c0.4,0,0.8,0,1.1-0.1s0.5-0.1,0.7-0.3s0.3-0.3,0.4-0.6c0.1-0.3,0.1-0.6,0.1-1v-8.9
				c0-0.1,0-0.2,0.1-0.3c0.1-0.1,0.2-0.1,0.3-0.1h1c0.1,0,0.2,0,0.2,0.1c0.1,0.1,0.1,0.2,0.1,0.3v8.7c0,0.5,0,0.9-0.1,1.3
				c0,0.4-0.2,0.8-0.3,1.1c-0.3,0.5-0.6,0.8-1.1,1c-0.5,0.2-1.1,0.3-1.9,0.3c-0.1,0-0.2,0-0.4,0c-0.2,0-0.4,0-0.5-0.1
				c-0.1,0-0.2-0.1-0.3-0.1c0,0-0.1-0.1-0.1-0.2V187.4z"/>
			<path d="M481.1,169.4c0-0.1,0-0.2,0.1-0.3s0.2-0.1,0.3-0.1h1c0.1,0,0.2,0,0.3,0.1s0.1,0.2,0.1,0.3v14.2c0,0.1,0,0.2-0.1,0.3
				s-0.2,0.1-0.3,0.1h-1c-0.1,0-0.2,0-0.3-0.1s-0.1-0.2-0.1-0.3V169.4z"/>
			<path d="M485.6,176.4c-0.2,0-0.4-0.1-0.4-0.2v-0.3c0-0.1,0.1-0.2,0.4-0.2h0.3c-0.1-0.1-0.2-0.3-0.3-0.5c-0.1-0.2-0.1-0.4-0.1-0.6
				c0-0.6,0.2-1,0.5-1.2c0.3-0.3,0.8-0.4,1.4-0.4c0.1,0,0.2,0,0.4,0c0.1,0,0.3,0,0.4,0.1c0.1,0.1,0.2,0.1,0.2,0.2v0.3
				c0,0.1-0.1,0.2-0.3,0.2c0,0-0.1,0-0.3,0c-0.2,0-0.3,0-0.3,0c-0.7,0-1.1,0.3-1.1,0.9c0,0.3,0,0.5,0.1,0.7c0.1,0.2,0.2,0.3,0.3,0.4
				h1.3c0.2,0,0.3,0.1,0.3,0.2v0.3c0,0.1,0,0.2-0.1,0.2c-0.1,0-0.1,0-0.3,0H485.6z M487.1,178.5c0.2,0,0.3,0.1,0.3,0.4
				c0,0.3-0.1,0.6-0.1,1c0,0.4-0.1,0.6-0.1,0.9c0,0.7,0,1.3,0.1,1.9c0.1,0.6,0.3,1.1,0.6,1.6s0.8,0.8,1.3,1.1
				c0.6,0.3,1.4,0.4,2.4,0.4c0.4,0,0.8,0,1.2,0s0.7-0.1,1.1-0.1c0-0.4,0-0.7,0-1c0-0.3,0-0.5,0-0.8s0-0.5,0-0.7c0-0.2,0-0.5,0-0.8
				v-2.2c0-1.4,0.4-2.5,1.2-3.1c0.8-0.6,1.9-0.9,3.4-0.9c0.4,0,0.8,0,1.3,0.1c0.5,0,0.9,0.1,1.2,0.2c0.1,0,0.2,0.1,0.2,0.1
				s0.1,0.1,0.1,0.3v6.9c0,0.1,0,0.2-0.1,0.3s-0.2,0.1-0.3,0.1h-0.9c-0.1,0-0.2,0-0.3-0.1s-0.1-0.2-0.1-0.3v-5.8
				c-0.3,0-0.5-0.1-0.7-0.1c-0.2,0-0.4,0-0.7,0c-0.4,0-0.8,0-1.2,0.1c-0.3,0.1-0.6,0.2-0.9,0.4c-0.2,0.2-0.4,0.5-0.5,0.8
				c-0.1,0.3-0.2,0.8-0.2,1.3v3.6c0,0.2,0,0.4,0,0.7c0,0.3,0,0.5,0,0.8c0,0.3,0,0.5,0,0.8c0,0.3,0,0.5,0,0.6c0,0.2-0.1,0.4-0.4,0.4
				c-0.5,0.1-1.1,0.2-1.7,0.2s-1.2,0.1-1.9,0.1c-1.2,0-2.2-0.1-3-0.4s-1.4-0.7-1.8-1.2c-0.5-0.5-0.8-1.2-1-1.9
				c-0.2-0.8-0.3-1.6-0.3-2.5c0-0.1,0-0.3,0-0.5c0-0.2,0-0.4,0-0.6c0-0.2,0-0.5,0.1-0.7c0-0.2,0.1-0.4,0.1-0.6
				c0-0.3,0.2-0.4,0.4-0.4H487.1z"/>
			<path d="M504.3,184.6c0-0.3,0-0.6,0-1c0-0.4,0.1-0.7,0.1-0.9c0-0.1,0.1-0.2,0.1-0.3c0.1-0.1,0.2-0.1,0.3-0.1c0.1,0,0.2,0,0.3,0
				c0.1,0,0.3,0,0.5,0c0.2,0,0.4,0,0.5,0s0.4,0,0.5,0h5.7l-0.8-1.8l-0.4-1c-0.2-0.5-0.5-1-0.8-1.3s-0.6-0.7-0.9-0.9
				c-0.4-0.2-0.8-0.4-1.2-0.6c-0.4-0.1-1-0.2-1.5-0.2c-0.1,0-0.1,0-0.3,0s-0.2,0-0.4,0c-0.1,0-0.3,0-0.4,0c-0.1,0-0.3,0-0.4,0
				c-0.3,0-0.4-0.1-0.4-0.3v-0.8c0-0.1,0-0.2,0.1-0.2s0.1-0.1,0.3-0.1c0.6-0.1,1.2-0.2,1.8-0.2c0.7,0,1.3,0.1,1.8,0.2
				c0.6,0.1,1.1,0.4,1.6,0.7s1,0.8,1.4,1.4c0.4,0.6,0.9,1.4,1.2,2.3l0.2,0.5l0.8,2.2c0,0.1,0,0.2,0.1,0.3c0,0.1,0,0.2,0,0.4v0.7
				c0,0.1,0,0.3-0.1,0.3c-0.1,0.1-0.2,0.1-0.5,0.1h-6.1c-0.2,0-0.5,0-0.8,0c-0.3,0-0.6,0-0.8,0c0,0.1,0,0.2,0,0.4c0,0.2,0,0.3,0,0.3
				c0,0.5,0.1,0.9,0.2,1.3s0.3,0.7,0.5,0.9c0.2,0.2,0.6,0.4,0.9,0.5s0.9,0.2,1.5,0.2h0.2c0.2,0,0.4,0.1,0.4,0.3v0.8
				c0,0.2-0.1,0.4-0.4,0.4c-0.1,0-0.2,0-0.3,0s-0.2,0-0.2,0c-1.6,0-2.7-0.4-3.4-1.2C504.6,187.3,504.3,186.1,504.3,184.6z"/>
		</g>
	</g>
</a>
<a class="svg-link" xlink:href="/slides" >
	<g>
		<path class="st5" d="M132.3,365.2H6.8c-3.7,0-6.8-3-6.8-6.7c0,0,0-0.1,0-0.1V199.6c0-3.7,3-6.8,6.7-6.8c0,0,0.1,0,0.1,0h125.5
			c3.7,0,6.8,3,6.8,6.7c0,0,0,0.1,0,0.1v158.8C139.1,362.2,136.1,365.2,132.3,365.2z"/>
		<path class="st6" d="M6.8,194.3c-2.9,0-5.3,2.4-5.3,5.3v158.8c0,2.9,2.4,5.3,5.3,5.3h125.5c2.9,0,5.3-2.4,5.3-5.3V199.6
			c0-2.9-2.4-5.3-5.3-5.3L6.8,194.3z"/>
		<path id="Path_20" class="st5" d="M112.4,230.3H74.6c-1.7,0-3-1.3-3-3c0-1.6,1.4-3,3-3h37.8c1.7,0,3,1.3,3.1,3
			c0,1.7-1.3,3.1-3,3.1c0,0,0,0,0,0C112.5,230.3,112.5,230.3,112.4,230.3z"/>
		<path id="Path_21" class="st5" d="M112.4,246.2H74.6c-1.7,0-3-1.3-3-3c0-1.6,1.4-3,3-3h37.8c1.7,0,3,1.3,3.1,3
			c0,1.7-1.3,3.1-3,3.1c0,0,0,0,0,0C112.5,246.2,112.5,246.2,112.4,246.2z"/>
		<path id="Path_22" class="st1" d="M55.2,255.2H27.6c-1.9,0-3.4-1.5-3.4-3.3c0,0,0,0,0-0.1v-32.6c0-1.9,1.5-3.4,3.3-3.4
			c0,0,0,0,0.1,0h27.6c1.9,0,3.4,1.5,3.4,3.3c0,0,0,0,0,0.1v32.6C58.6,253.7,57.1,255.2,55.2,255.2
			C55.2,255.2,55.2,255.2,55.2,255.2z"/>
		<path id="Path_23" class="st3" d="M112.2,278.7H26.7c-1.7,0-3-1.4-3-3.1c0,0,0,0,0,0c0-1.6,1.4-3,3-3h85.4c1.7,0,3,1.4,3,3.1
			C115.1,277.4,113.8,278.7,112.2,278.7z"/>
		<path id="Path_24" class="st3" d="M112.2,294.6H26.7c-1.7,0-3-1.3-3-3c0-1.6,1.4-3,3-3h85.4c1.7,0,3,1.3,3,3
			C115.1,293.3,113.8,294.6,112.2,294.6z"/>
		<path id="Path_25" class="st3" d="M112.2,310.4H26.7c-1.7,0-3-1.3-3-3c0-1.6,1.4-3,3-3h85.4c1.7,0,3,1.4,3,3.1c0,0,0,0,0,0
			C115.1,309.1,113.8,310.4,112.2,310.4z"/>
		<path id="Path_26" class="st3" d="M112.2,326.3H26.7c-1.7,0-3-1.4-3-3.1c0,0,0,0,0,0c0-1.6,1.4-3,3-3h85.4c1.7,0,3,1.4,3,3.1
			c0,0,0,0,0,0C115.1,325,113.9,326.3,112.2,326.3C112.2,326.3,112.2,326.3,112.2,326.3z"/>
		<path id="Path_27" class="st3" d="M112.2,342.2H26.7c-1.7,0-3-1.3-3-3c0-1.6,1.4-3,3-3h85.4c1.7,0,3,1.3,3,3
			C115.1,340.9,113.8,342.2,112.2,342.2z"/>
		<g>
			<path d="M43.9,177.5c0.2,0,0.3,0.1,0.3,0.4c0,0.2,0,0.3,0,0.5c0,0.2,0,0.4,0,0.5c0,0.2,0,0.3,0,0.5s0,0.3,0,0.4
				c0,0.7,0,1.3,0.1,1.9c0.1,0.6,0.3,1.1,0.6,1.5c0.3,0.4,0.8,0.8,1.4,1c0.6,0.2,1.4,0.4,2.4,0.4c0.3,0,0.7,0,0.9,0
				c0.3,0,0.6-0.1,0.9-0.1c0-0.4,0-0.7,0-1s0-0.6,0-0.8c0-0.3,0-0.5,0-0.7c0-0.2,0-0.5,0-0.8v-6c0-0.1,0-0.2,0.1-0.3
				c0.1-0.1,0.2-0.1,0.3-0.1h1c0.1,0,0.2,0,0.2,0.1c0.1,0.1,0.1,0.2,0.1,0.3v7.6c0,0.2,0,0.4,0,0.6s0,0.5,0,0.8c0,0.3,0,0.5,0,0.8
				s0,0.5,0,0.7c0,0.1,0,0.2-0.1,0.3c-0.1,0.1-0.2,0.1-0.3,0.1c-0.5,0.1-1,0.2-1.5,0.2c-0.5,0-1.1,0.1-1.6,0.1
				c-1.2,0-2.1-0.1-2.9-0.4c-0.8-0.3-1.4-0.6-1.9-1.1c-0.5-0.5-0.8-1.1-1-1.9c-0.2-0.7-0.3-1.6-0.3-2.5c0-0.1,0-0.3,0-0.5
				c0-0.2,0-0.5,0-0.7c0-0.3,0-0.5,0.1-0.8c0-0.2,0.1-0.5,0.1-0.6c0-0.1,0.1-0.2,0.1-0.3c0.1-0.1,0.1-0.1,0.3-0.1H43.9z M46.6,172.1
				c0-0.1,0-0.2,0.1-0.3c0.1-0.1,0.2-0.1,0.3-0.1h0.9c0.1,0,0.2,0,0.3,0.1c0.1,0.1,0.1,0.2,0.1,0.3v1.1c0,0.1,0,0.2-0.1,0.3
				c-0.1,0.1-0.2,0.1-0.3,0.1h-0.9c-0.1,0-0.2,0-0.3-0.1c-0.1-0.1-0.1-0.2-0.1-0.3V172.1z"/>
			<path d="M54.9,183.1c0-0.9,0.2-1.5,0.5-1.9c0.4-0.4,0.9-0.6,1.5-0.7c-0.1-0.2-0.2-0.5-0.2-0.8c0-0.3,0-0.6,0-0.9v-1
				c0-1.4,0.4-2.4,1.1-3.2c0.7-0.7,1.7-1.1,3.1-1.1c1.3,0,2.3,0.4,3,1.1c0.7,0.7,1,1.8,1,3.2v1.1c0,1.4-0.3,2.4-1,3.1
				c-0.7,0.7-1.7,1.1-3.1,1.1c-0.7,0-1.3-0.1-1.8-0.2c-0.5-0.2-0.9-0.4-1.3-0.8c-0.4,0-0.7,0.1-0.9,0.2c-0.2,0.1-0.3,0.4-0.3,0.9
				v4.4c0,0.1,0,0.2-0.1,0.3c-0.1,0.1-0.2,0.1-0.3,0.1h-0.9c-0.1,0-0.2,0-0.3-0.1c-0.1-0.1-0.1-0.2-0.1-0.3V183.1z M58.4,178.8
				c0,1,0.2,1.7,0.5,2.1c0.4,0.4,1,0.6,1.9,0.6c0.9,0,1.5-0.2,1.9-0.6c0.4-0.4,0.5-1.1,0.5-2.1V178c0-0.9-0.2-1.6-0.5-2.1
				c-0.4-0.5-1-0.7-1.8-0.7s-1.5,0.2-1.9,0.7s-0.6,1.2-0.6,2.1V178.8z"/>
			<path d="M68,168.4c0-0.1,0-0.2,0.1-0.3s0.2-0.1,0.3-0.1h1c0.1,0,0.2,0,0.3,0.1s0.1,0.2,0.1,0.3v14.2c0,0.1,0,0.2-0.1,0.3
				s-0.2,0.1-0.3,0.1h-1c-0.1,0-0.2,0-0.3-0.1s-0.1-0.2-0.1-0.3V168.4z"/>
			<path d="M72.4,181.6c0-0.1,0-0.2,0.1-0.3c0.1-0.1,0.2-0.1,0.3-0.1h5.5l0-2.5c0-1.2-0.3-2-0.9-2.6c-0.6-0.6-1.5-0.9-2.8-0.9
				c-0.1,0-0.4,0-0.6,0s-0.5,0-0.7,0c-0.3,0-0.4-0.1-0.4-0.3v-0.8c0-0.1,0-0.2,0.1-0.3c0.1-0.1,0.2-0.1,0.3-0.1
				c0.3-0.1,0.7-0.1,1-0.1c0.3,0,0.5,0,0.7,0c0.9,0,1.7,0.1,2.3,0.4c0.6,0.2,1.1,0.6,1.5,1s0.7,1,0.8,1.6c0.2,0.6,0.3,1.3,0.3,2
				c0,0.1,0,0.2,0,0.4s0,0.4,0,0.7c0,0.3,0,0.5,0,0.7c0,0.2,0,0.4,0,0.5c0,0.1,0,0.2,0,0.4s0,0.3,0,0.4s0,0.3,0,0.5
				c0,0.1,0,0.3,0,0.4c0,0.3-0.1,0.4-0.4,0.4h-6.6c-0.1,0-0.2,0-0.3-0.1s-0.1-0.1-0.1-0.3V181.6z M75,170c0-0.1,0-0.2,0.1-0.3
				c0.1-0.1,0.2-0.1,0.3-0.1h0.9c0.1,0,0.2,0,0.3,0.1c0.1,0.1,0.1,0.2,0.1,0.3v1.1c0,0.1,0,0.2-0.1,0.3c-0.1,0.1-0.2,0.1-0.3,0.1
				h-0.9c-0.1,0-0.2,0-0.3-0.1c-0.1-0.1-0.1-0.2-0.1-0.3V170z"/>
			<path d="M82.3,183.6c0-0.3,0-0.6,0-1c0-0.4,0.1-0.7,0.1-0.9c0-0.1,0.1-0.2,0.1-0.3c0.1-0.1,0.2-0.1,0.3-0.1c0.1,0,0.2,0,0.3,0
				c0.1,0,0.3,0,0.5,0c0.2,0,0.4,0,0.5,0s0.4,0,0.5,0h5.7l-0.8-1.7l-0.4-1c-0.2-0.5-0.5-1-0.8-1.3s-0.6-0.7-0.9-0.9
				c-0.4-0.2-0.8-0.4-1.2-0.6c-0.4-0.1-1-0.2-1.5-0.2c-0.1,0-0.1,0-0.3,0s-0.2,0-0.4,0c-0.1,0-0.3,0-0.4,0c-0.1,0-0.3,0-0.4,0
				c-0.3,0-0.4-0.1-0.4-0.3v-0.8c0-0.1,0-0.2,0.1-0.2s0.1-0.1,0.3-0.1c0.6-0.1,1.2-0.2,1.8-0.2c0.7,0,1.3,0.1,1.8,0.2
				c0.6,0.1,1.1,0.4,1.6,0.7s1,0.8,1.4,1.4c0.4,0.6,0.9,1.4,1.2,2.3l0.2,0.5l0.8,2.2c0,0.1,0,0.2,0.1,0.3c0,0.1,0,0.2,0,0.4v0.7
				c0,0.1,0,0.3-0.1,0.3c-0.1,0.1-0.2,0.1-0.5,0.1h-6.1c-0.2,0-0.5,0-0.8,0c-0.3,0-0.6,0-0.8,0c0,0.2,0,0.3,0,0.5c0,0.1,0,0.2,0,0.3
				c0,1.9,0.9,2.9,2.5,2.9h0.1c0.2,0,0.4,0.1,0.4,0.3v0.8c0,0.1,0,0.2-0.1,0.3s-0.1,0.1-0.3,0.1c-0.1,0-0.1,0-0.2,0
				c-0.1,0-0.1,0-0.1,0c-1.3,0-2.3-0.4-2.9-1.1C82.7,186.2,82.3,185.1,82.3,183.6z M87.2,184.6c0-0.1,0-0.2,0.1-0.3
				c0.1-0.1,0.2-0.1,0.3-0.1h0.8c0.1,0,0.2,0,0.3,0.1c0.1,0.1,0.1,0.2,0.1,0.3v0.9c0,0.1,0,0.2-0.1,0.3c-0.1,0.1-0.2,0.1-0.3,0.1
				h-0.8c-0.1,0-0.2,0-0.3-0.1c-0.1-0.1-0.1-0.2-0.1-0.3V184.6z"/>
		</g>
	</g>
</a>
</svg>
