<svg xmlns="http://www.w3.org/2000/svg" xmlns:xlink="http://www.w3.org/1999/xlink" width="94.951" height="80" viewBox="0 0 94.951 80">
  <defs>
    <linearGradient id="linear-gradient" x1="0.5" y1="1" x2="0.5" gradientUnits="objectBoundingBox">
      <stop offset="0" stop-color="gray" stop-opacity="0.251"/>
      <stop offset="0.54" stop-color="gray" stop-opacity="0.122"/>
      <stop offset="1" stop-color="gray" stop-opacity="0.102"/>
    </linearGradient>
    <linearGradient id="linear-gradient-2" x1="0" y1="0.5" x2="1" y2="0.5" xlink:href="#linear-gradient"/>
    <linearGradient id="linear-gradient-4" x1="0.5" y1="1" x2="0.5" y2="0" xlink:href="#linear-gradient"/>
  </defs>
  <g id="Group_110" data-name="Group 110" transform="translate(-179.04 -2773)">
    <circle id="Ellipse_19" data-name="Ellipse 19" cx="38" cy="38" r="38" transform="translate(185.336 2775)" fill="none" stroke="#b91104" stroke-miterlimit="10" stroke-width="4" stroke-dasharray="12.07 15.09"/>
    <rect id="Rectangle_32" data-name="Rectangle 32" width="39.987" height="25.435" transform="translate(187.021 2786.294)" fill="#6c63ff" opacity="0.2"/>
    <rect id="Rectangle_33" data-name="Rectangle 33" width="45.856" height="26.046" transform="translate(179.04 2782.638)" fill="url(#linear-gradient)"/>
    <rect id="Rectangle_34" data-name="Rectangle 34" width="44.756" height="21.644" transform="translate(179.528 2786.429)" fill="#fff"/>
    <rect id="Rectangle_35" data-name="Rectangle 35" width="15.53" height="16.386" transform="translate(182.586 2788.263)" fill="url(#linear-gradient-2)"/>
    <rect id="Rectangle_36" data-name="Rectangle 36" width="14.674" height="15.652" transform="translate(183.075 2788.63)" fill="#637dff"/>
    <path id="Path_186" data-name="Path 186" d="M223.236,231.557a10.615,10.615,0,0,0-.628-2.731,4.526,4.526,0,0,0-1.723-2.163,1.969,1.969,0,0,0-.953-.33,1.788,1.788,0,0,0-1.52.933,4.351,4.351,0,0,0-.284.577,1.343,1.343,0,0,0-1.115,1.23,3.425,3.425,0,0,0,.485,6.467v.584a3.438,3.438,0,0,0-2.568,3.315v1.59h6.848v-1.59a3.438,3.438,0,0,0-2.568-3.315v-.584a3.425,3.425,0,0,0,2.568-3.316V232.2l.385.857a4.665,4.665,0,0,1,.6,2.577A6.5,6.5,0,0,0,223.236,231.557Z" transform="translate(-28.725 2563.254)" fill="#fff"/>
    <rect id="Rectangle_37" data-name="Rectangle 37" width="44.756" height="3.302" transform="translate(179.528 2783.128)" fill="#637dff"/>
    <rect id="Rectangle_38" data-name="Rectangle 38" width="16.997" height="1.1" transform="translate(203.741 2793.216)" fill="#e0e0e0"/>
    <rect id="Rectangle_39" data-name="Rectangle 39" width="16.997" height="1.1" transform="translate(203.741 2797.863)" fill="#f5f5f5"/>
    <rect id="Rectangle_40" data-name="Rectangle 40" width="10.028" height="1.1" transform="translate(203.618 2795.539)" fill="#6c63ff" opacity="0.2"/>
    <rect id="Rectangle_41" data-name="Rectangle 41" width="6.848" height="1.1" transform="translate(203.618 2800.186)" fill="#69f0ae" opacity="0.2"/>
    <rect id="Rectangle_42" data-name="Rectangle 42" width="6.848" height="1.1" transform="translate(211.689 2800.186)" fill="#69f0ae"/>
    <rect id="Rectangle_43" data-name="Rectangle 43" width="22.564" height="10.523" transform="translate(248.901 2789.098)" fill="#ff6e40" opacity="0.2"/>
    <rect id="Rectangle_44" data-name="Rectangle 44" width="24.196" height="11.43" transform="translate(245.353 2786.582)" fill="url(#linear-gradient)"/>
    <rect id="Rectangle_45" data-name="Rectangle 45" width="22.564" height="10.523" transform="translate(246.243 2786.854)" fill="#fff"/>
    <rect id="Rectangle_46" data-name="Rectangle 46" width="13.163" height="1.249" transform="translate(249.662 2789.155)" fill="#ff6e40" opacity="0.3"/>
    <rect id="Rectangle_47" data-name="Rectangle 47" width="6.826" height="1.249" transform="translate(249.662 2792.013)" fill="#ff6e40"/>
    <rect id="Rectangle_48" data-name="Rectangle 48" width="52.638" height="14.158" transform="translate(221.353 2833.145)" fill="#6c63ff" opacity="0.2"/>
    <rect id="Rectangle_49" data-name="Rectangle 49" width="53.404" height="15.075" transform="translate(218.117 2830.056)" fill="url(#linear-gradient-4)"/>
    <rect id="Rectangle_50" data-name="Rectangle 50" width="52.638" height="14.054" transform="translate(218.5 2830.567)" fill="#fff"/>
    <circle id="Ellipse_20" data-name="Ellipse 20" cx="5.266" cy="5.266" r="5.266" transform="translate(226.098 2832.329)" fill="url(#linear-gradient)"/>
    <circle id="Ellipse_21" data-name="Ellipse 21" cx="4.68" cy="4.68" r="4.68" transform="translate(226.683 2832.914)" fill="#637dff"/>
    <g id="Group_109" data-name="Group 109" transform="translate(240.578 2834.084)" opacity="0.2">
      <rect id="Rectangle_51" data-name="Rectangle 51" width="8.337" height="1.462" fill="#6c63ff"/>
      <rect id="Rectangle_52" data-name="Rectangle 52" width="22.962" height="1.462" transform="translate(0 2.778)" fill="#6c63ff"/>
      <rect id="Rectangle_53" data-name="Rectangle 53" width="22.962" height="1.462" transform="translate(0 5.558)" fill="#6c63ff"/>
    </g>
    <path id="Path_187" data-name="Path 187" d="M477.573,575.3l-1.028-.784-2.709,3.55-1.512-1.154-.784,1.027,2.027,1.547.005-.007.513.392Z" transform="translate(-243.138 2260.413)" fill="#fff"/>
  </g>
</svg>
