<svg xmlns="http://www.w3.org/2000/svg" width="50" height="50" viewBox="0 0 50 50">
  <g id="Group_168" data-name="Group 168" transform="translate(-735 -719)">
    <g id="Rectangle_5" data-name="Rectangle 5" transform="translate(735 719)" fill="#fff" stroke="#e24c3f" stroke-width="2">
      <rect width="50" height="50" rx="4" stroke="none"/>
      <rect x="1" y="1" width="48" height="48" rx="3" fill="none"/>
    </g>
    <g id="pdf" transform="translate(746 730)">
      <path id="Path_55" data-name="Path 55" d="M29,24.46A4.54,4.54,0,0,1,24.46,29H4.54A4.54,4.54,0,0,1,0,24.46V5.9L5.9,0H24.46A4.54,4.54,0,0,1,29,4.54Z" fill="#e24c3f"/>
      <path id="Path_56" data-name="Path 56" d="M0,107.163V104H3.148Z" transform="translate(0 -98.098)" fill="#5d5d5d" opacity="0.2"/>
      <path id="Path_57" data-name="Path 57" d="M0,5.9H3.935A1.96,1.96,0,0,0,5.9,3.95V0Z" fill="#ff7063"/>
      <path id="Path_58" data-name="Path 58" d="M85.652,185.892v-9.5h4.7a3.043,3.043,0,0,1,1.189.219,2.326,2.326,0,0,1,.861.608,2.645,2.645,0,0,1,.519.929,3.813,3.813,0,0,1,.178,1.2,4.291,4.291,0,0,1-.171,1.23,2.873,2.873,0,0,1-.505.991,2.32,2.32,0,0,1-.854.656,2.881,2.881,0,0,1-1.216.239H87.2v3.429H85.652Zm1.544-8.075v3.2h2.623a1.842,1.842,0,0,0,1.318-.4,1.69,1.69,0,0,0,.417-1.264,1.419,1.419,0,0,0-.444-1.175,2.029,2.029,0,0,0-1.291-.355H87.2Z" transform="translate(-80.791 -166.385)" fill="#ff7063"/>
      <path id="Path_59" data-name="Path 59" d="M233.547,173.916l1.489-.41v8.088a3.513,3.513,0,0,0,.027.465q.027.2.068.383t.123.348a2.5,2.5,0,0,0,.178.376h-1.571a2.069,2.069,0,0,1-.164-.369q-.055-.246-.082-.437a3.919,3.919,0,0,1-.936.69,2.365,2.365,0,0,1-1.127.28,3.139,3.139,0,0,1-1.25-.232,2.569,2.569,0,0,1-.909-.642,2.679,2.679,0,0,1-.553-.977,3.932,3.932,0,0,1-.184-1.223V179.6a3.446,3.446,0,0,1,.915-2.61,3.712,3.712,0,0,1,2.664-.874,3.475,3.475,0,0,1,1.312.26v-2.459Zm0,3.839a2.043,2.043,0,0,0-.69-.246,4.252,4.252,0,0,0-.731-.068,2.493,2.493,0,0,0-.922.15,1.581,1.581,0,0,0-.615.424,1.614,1.614,0,0,0-.342.656,3.217,3.217,0,0,0-.1.833v.506a4.973,4.973,0,0,0,.055.745,1.8,1.8,0,0,0,.212.635,1.251,1.251,0,0,0,.43.444,1.322,1.322,0,0,0,.711.171,1.743,1.743,0,0,0,.567-.1,2.761,2.761,0,0,0,.54-.253,3.787,3.787,0,0,0,.888-.745v-3.156Z" transform="translate(-215.679 -163.659)" fill="#ff7063"/>
      <path id="Path_60" data-name="Path 60" d="M360.246,175.514a2.72,2.72,0,0,1,.1-.745,1.852,1.852,0,0,1,.321-.642,1.585,1.585,0,0,1,.574-.451,1.939,1.939,0,0,1,.847-.171,3.315,3.315,0,0,1,.526.048,3.785,3.785,0,0,1,.512.116v1.175h-.547a.817.817,0,0,0-.635.232.917.917,0,0,0-.212.642v.56h1.325l-.4,1.23h-.929v5.656h-1.489v-5.656h-.861v-1.23h.861v-.765Z" transform="translate(-338.989 -163.659)" fill="#ff7063"/>
      <path id="Path_61" data-name="Path 61" d="M85.652,179.892v-9.5h4.7a3.043,3.043,0,0,1,1.189.219,2.326,2.326,0,0,1,.861.608,2.645,2.645,0,0,1,.519.929,3.813,3.813,0,0,1,.178,1.2,4.291,4.291,0,0,1-.171,1.23,2.873,2.873,0,0,1-.505.991,2.32,2.32,0,0,1-.854.656,2.881,2.881,0,0,1-1.216.239H87.2v3.429H85.652Zm1.544-8.075v3.2h2.623a1.842,1.842,0,0,0,1.318-.4,1.69,1.69,0,0,0,.417-1.264,1.419,1.419,0,0,0-.444-1.175,2.029,2.029,0,0,0-1.291-.355H87.2Z" transform="translate(-80.791 -160.726)" fill="#fff"/>
      <path id="Path_62" data-name="Path 62" d="M233.547,167.916l1.489-.41v8.088a3.512,3.512,0,0,0,.027.465q.027.2.068.383t.123.348a2.5,2.5,0,0,0,.178.376h-1.571a2.068,2.068,0,0,1-.164-.369q-.055-.246-.082-.437a3.919,3.919,0,0,1-.936.69,2.365,2.365,0,0,1-1.127.28,3.14,3.14,0,0,1-1.25-.232,2.569,2.569,0,0,1-.909-.642,2.679,2.679,0,0,1-.553-.977,3.932,3.932,0,0,1-.184-1.223V173.6a3.446,3.446,0,0,1,.915-2.61,3.712,3.712,0,0,1,2.664-.874,3.475,3.475,0,0,1,1.312.26v-2.459Zm0,3.839a2.043,2.043,0,0,0-.69-.246,4.252,4.252,0,0,0-.731-.068,2.493,2.493,0,0,0-.922.15,1.581,1.581,0,0,0-.615.424,1.614,1.614,0,0,0-.342.656,3.217,3.217,0,0,0-.1.833v.506a4.973,4.973,0,0,0,.055.745,1.8,1.8,0,0,0,.212.635,1.251,1.251,0,0,0,.43.444,1.322,1.322,0,0,0,.711.171,1.742,1.742,0,0,0,.567-.1,2.761,2.761,0,0,0,.54-.253,3.788,3.788,0,0,0,.888-.745v-3.156Z" transform="translate(-215.679 -158)" fill="#fff"/>
      <path id="Path_63" data-name="Path 63" d="M360.246,169.514a2.72,2.72,0,0,1,.1-.745,1.852,1.852,0,0,1,.321-.642,1.586,1.586,0,0,1,.574-.451,1.939,1.939,0,0,1,.847-.171,3.317,3.317,0,0,1,.526.048,3.79,3.79,0,0,1,.512.116v1.175h-.547a.817.817,0,0,0-.635.232.917.917,0,0,0-.212.642v.56h1.325l-.4,1.23h-.929v5.656h-1.489v-5.656h-.861v-1.23h.861v-.765Z" transform="translate(-338.989 -158)" fill="#fff"/>
    </g>
  </g>
</svg>
