<svg id="Capa_1" enable-background="new 0 0 512 512" height="512" viewBox="0 0 512 512" width="512" xmlns="http://www.w3.org/2000/svg"><g><path d="m512 106h-150v-45c0-24.813-20.187-45-45-45h-122c-24.813 0-45 20.187-45 45v45h-150v390h512zm-332-45c0-8.271 6.729-15 15-15h122c8.271 0 15 6.729 15 15v45h-152zm302 405h-452v-330h452z"/><path d="m135 256c19.555 0 36.228-12.541 42.42-30h274.58v-30h-274.58c-6.192-17.459-22.865-30-42.42-30s-36.228 12.541-42.42 30h-32.58v30h32.58c6.192 17.459 22.865 30 42.42 30zm0-60c8.271 0 15 6.729 15 15s-6.729 15-15 15-15-6.729-15-15 6.729-15 15-15z"/><path d="m225 436c19.555 0 36.228-12.541 42.42-30h184.58v-30h-184.58c-6.192-17.459-22.865-30-42.42-30s-36.228 12.541-42.42 30h-122.58v30h122.58c6.192 17.459 22.865 30 42.42 30zm0-60c8.271 0 15 6.729 15 15s-6.729 15-15 15-15-6.729-15-15 6.729-15 15-15z"/><path d="m377 346c19.555 0 36.228-12.541 42.42-30h32.58v-30h-32.58c-6.192-17.459-22.865-30-42.42-30s-36.228 12.541-42.42 30h-274.58v30h274.58c6.192 17.459 22.865 30 42.42 30zm0-60c8.271 0 15 6.729 15 15s-6.729 15-15 15-15-6.729-15-15 6.729-15 15-15z"/></g></svg>