<svg xmlns="http://www.w3.org/2000/svg" width="122.397" height="64.483" viewBox="0 0 122.397 64.483">
  <g id="Group_108" data-name="Group 108" transform="translate(-1270.122 -1758)">
    <path id="Path_163" data-name="Path 163" d="M348.151,496.222a1.436,1.436,0,0,0,2.483-1.442,1.543,1.543,0,0,0-.135-.192l1.208-8.609.036-.258.245-1.757.036-.253-.134.006-2.34.107-.628.028-.079,1.6-.445,9.01A1.434,1.434,0,0,0,348.151,496.222Z" transform="translate(943.724 1294.604)" fill="#ffb8b8"/>
    <path id="Path_164" data-name="Path 164" d="M353.218,448.011l-2.972-.273a.587.587,0,0,1-.529-.635l.551-6.18a2.253,2.253,0,1,1,4.473.528l-.891,6.061a.586.586,0,0,1-.579.5Z" transform="translate(942.242 1332.392)" fill="#ec3222"/>
    <path id="Path_165" data-name="Path 165" d="M356.4,436.624a4.139,4.139,0,0,1,1.522-4.764c1.121-.767,2.654-1.042,4.305.924a20.559,20.559,0,0,1,4.168,8.257l-6.763,1.1A21.694,21.694,0,0,1,356.4,436.624Z" transform="translate(936.806 1338.786)" fill="#eb3222"/>
    <g id="Group_107" data-name="Group 107" transform="translate(1296.419 1770.627)" opacity="0.2">
      <path id="Path_166" data-name="Path 166" d="M379.131,434.831a13.645,13.645,0,0,0-1.043,4.345,6.823,6.823,0,0,0,.786,3.376,4.1,4.1,0,0,0,2.156,1.956.9.9,0,0,0,.507.057.565.565,0,0,0,.394-.4,1.436,1.436,0,0,0-.107-.835c-1.011-2.916-1.5-5.449-2.512-8.365Z" transform="translate(-378.085 -434.831)"/>
    </g>
    <path id="Path_167" data-name="Path 167" d="M216.329,567.5h1.928l.917-7.437h-2.846Z" transform="translate(1087.817 1252.202)" fill="#ffb8b8"/>
    <path id="Path_168" data-name="Path 168" d="M0,0H6.06V2.341H2.341A2.341,2.341,0,0,1,0,0Z" transform="translate(1309.792 1821.491) rotate(179.997)" fill="#2f2e41"/>
    <path id="Path_169" data-name="Path 169" d="M115.537,558.82l1.831.605,3.205-6.774-2.7-.893Z" transform="translate(1172.756 1259.198)" fill="#ffb8b8"/>
    <path id="Path_170" data-name="Path 170" d="M0,0H6.06V2.341H2.341A2.341,2.341,0,0,1,0,0H0Z" transform="translate(1293.093 1821.491) rotate(-161.71)" fill="#2f2e41"/>
    <circle id="Ellipse_11" data-name="Ellipse 11" cx="3.863" cy="3.863" r="3.863" transform="translate(1293.59 1760.971)" fill="#ffb8b8"/>
    <path id="Path_171" data-name="Path 171" d="M328.394,528.723,326.6,516.9a.55.55,0,0,0-1.079-.047L322.8,528.12a.713.713,0,0,1-.8.532l-7.522-1.209a.708.708,0,0,1-.565-.9l9.808-32.335a.55.55,0,0,0,.01-.283l-.327-1.415a.705.705,0,0,1,.366-.789c1.336-.682,4.717-2.1,7.271-.546a.716.716,0,0,1,.327.46l7.662,36.011a.708.708,0,0,1-.629.852l-9.241.828-.063,0a.709.709,0,0,1-.7-.6Z" transform="translate(972.441 1288.907)"/>
    <path id="Path_172" data-name="Path 172" d="M401.072,483.036a1.428,1.428,0,0,0-.888-2l-4.827-9.865-2.49,1.855,5.51,9.085a1.435,1.435,0,0,0,2.7.927Z" transform="translate(905.878 1305.173)" fill="#ffb8b8"/>
    <path id="Path_173" data-name="Path 173" d="M373.325,439.873l-3-5.427a2.246,2.246,0,0,1-.026-2.139,2.149,2.149,0,0,1,.589-.715,2.255,2.255,0,0,1,2.283-.313,2.318,2.318,0,0,1,1.177,1.148l2.633,5.472a.586.586,0,0,1-.246.767l-2.614,1.437a.586.586,0,0,1-.794-.23Z" transform="translate(925.116 1338.94)" fill="#eb3222"/>
    <path id="Path_174" data-name="Path 174" d="M360.462,365.471a2.921,2.921,0,0,0,.883-.494.991.991,0,0,0,.345-.908,1.006,1.006,0,0,0-1.113-.661,4.336,4.336,0,0,0-2.187,1.428.879.879,0,0,0,1.176,1.284,2.9,2.9,0,0,0,.9-.82Z" transform="translate(935.073 1395.992)" fill="#2f2e41"/>
    <path id="Path_175" data-name="Path 175" d="M311.416,356.66a1.973,1.973,0,0,0-1.942-2.117,3.316,3.316,0,0,0-2.69,1.6c-1.287,1.906-1.143,4.417-.759,6.685s.957,4.608.368,6.831a6.908,6.908,0,0,1-5.117,4.878,3.629,3.629,0,0,0,3.771-.1,7.336,7.336,0,0,0,3.666-7.436,29.291,29.291,0,0,0-1.341-4.145,5.711,5.711,0,0,1-.006-4.252c.65-1.3,2.426-2.094,3.635-1.285Z" transform="translate(983.063 1403.458)" fill="#2f2e41"/>
    <path id="Path_176" data-name="Path 176" d="M360.675,375.937c-.213-.626-.394-1.427.311-1.788a1.268,1.268,0,0,1,.983-.052,4.538,4.538,0,0,0,2.1.3,1.989,1.989,0,0,0,1.341-.779,2.047,2.047,0,0,0-.318-2.456,2.736,2.736,0,0,0-2.954-.671,3.12,3.12,0,0,0-2.939-.265,4.659,4.659,0,0,0-2.219,2.051,4.75,4.75,0,0,0-.676,2.528,3.883,3.883,0,0,0,1.816,3.091,1.4,1.4,0,0,0,1.394.081,2.6,2.6,0,0,0,.894-.86A1.647,1.647,0,0,0,360.675,375.937Z" transform="translate(936.687 1390.446)" fill="#2f2e41"/>
    <path id="Path_177" data-name="Path 177" d="M270.962,758.815H211.04a.157.157,0,1,1,0-.315h59.922a.157.157,0,1,1,0,.315Z" transform="translate(1059.239 1063.033)" fill="#3f3d56"/>
    <path id="Path_178" data-name="Path 178" d="M708.493,338.69H689.441a1.959,1.959,0,0,1-1.956-1.956V306.089a1.959,1.959,0,0,1,1.956-1.956h19.053Zm-19.053-34.243a1.644,1.644,0,0,0-1.642,1.642v30.645a1.644,1.644,0,0,0,1.642,1.642h18.738V304.447Z" transform="translate(657.596 1479.76)" fill="#3f3d56"/>
    <path id="Path_179" data-name="Path 179" d="M817.934,304.133h19.053a1.959,1.959,0,0,1,1.956,1.956v30.645a1.959,1.959,0,0,1-1.956,1.956H817.934Z" transform="translate(547.663 1479.76)"/>
    <rect id="Rectangle_29" data-name="Rectangle 29" width="0.215" height="10" transform="translate(1351.681 1775.957)" fill="#2f2e41"/>
    <path id="Path_180" data-name="Path 180" d="M718.448,230.843a2.258,2.258,0,1,1,2.258-2.258A2.258,2.258,0,0,1,718.448,230.843Zm0-4.3a2.043,2.043,0,1,0,2.043,2.043,2.043,2.043,0,0,0-2.043-2.043Z" transform="translate(633.405 1545.329)" fill="#2f2e41"/>
    <rect id="Rectangle_30" data-name="Rectangle 30" width="0.215" height="23.118" transform="translate(1373.683 1762.516)" fill="#2f2e41"/>
    <path id="Path_181" data-name="Path 181" d="M858.346,144.016a2.258,2.258,0,1,1,2.258-2.258A2.258,2.258,0,0,1,858.346,144.016Zm0-4.3a2.043,2.043,0,1,0,2.043,2.043A2.043,2.043,0,0,0,858.346,139.715Z" transform="translate(515.509 1618.5)" fill="#2f2e41"/>
    <path id="Path_182" data-name="Path 182" d="M781.189,383.805a7.162,7.162,0,1,1,0-14.324Z" transform="translate(584.664 1424.69)" fill="#eb3222"/>
    <path id="Path_183" data-name="Path 183" d="M819.566,369.481a7.162,7.162,0,0,1,0,14.324Z" transform="translate(546.287 1424.689)" fill="#e6e6e6"/>
    <path id="Path_184" data-name="Path 184" d="M702.672,320.537H653.211a1.83,1.83,0,0,1-1.828-1.828V279.634a1.83,1.83,0,0,1,1.828-1.828h49.462a1.83,1.83,0,0,1,1.828,1.828v39.075A1.83,1.83,0,0,1,702.672,320.537Zm-49.462-42.516a1.615,1.615,0,0,0-1.613,1.613v39.075a1.615,1.615,0,0,0,1.613,1.613h49.462a1.615,1.615,0,0,0,1.613-1.613V279.634a1.615,1.615,0,0,0-1.613-1.613Z" transform="translate(688.02 1501.946)" fill="#3f3d56"/>
    <rect id="Rectangle_31" data-name="Rectangle 31" width="0.215" height="27.485" transform="translate(1362.533 1769.638)" fill="#2f2e41"/>
    <path id="Path_185" data-name="Path 185" d="M787.448,189.843a2.258,2.258,0,1,1,2.258-2.258,2.258,2.258,0,0,1-2.258,2.258Zm0-4.3a2.043,2.043,0,1,0,2.043,2.043A2.043,2.043,0,0,0,787.448,185.542Z" transform="translate(575.257 1579.881)" fill="#2f2e41"/>
    <circle id="Ellipse_12" data-name="Ellipse 12" cx="1.415" cy="1.415" r="1.415" transform="translate(1347.266 1813.833)" fill="#3f3d56"/>
    <circle id="Ellipse_13" data-name="Ellipse 13" cx="1.415" cy="1.415" r="1.415" transform="translate(1382.024 1813.833)" fill="#e6e6e6"/>
    <circle id="Ellipse_14" data-name="Ellipse 14" cx="1.415" cy="1.415" r="1.415" transform="translate(1347.266 1785.681)" fill="#3f3d56"/>
    <circle id="Ellipse_15" data-name="Ellipse 15" cx="1.415" cy="1.415" r="1.415" transform="translate(1382.024 1785.681)" fill="#e6e6e6"/>
    <circle id="Ellipse_16" data-name="Ellipse 16" cx="2.151" cy="2.151" r="2.151" transform="translate(1349.057 1772.516)" fill="#f2f2f2"/>
    <circle id="Ellipse_17" data-name="Ellipse 17" cx="2.151" cy="2.151" r="2.151" transform="translate(1371.06 1758.86)"/>
    <circle id="Ellipse_18" data-name="Ellipse 18" cx="2.151" cy="2.151" r="2.151" transform="translate(1359.909 1766.068)" fill="#eb3222"/>
  </g>
</svg>
