<svg height="512" fill="#ffffff" viewBox="0 0 512 512" width="512" xmlns="http://www.w3.org/2000/svg"><g id="_17-Rating" data-name="17-Rating"><g id="filled"><path d="m212.853 93.222-5.84 35.145c-1.879 9.405 9 17.311 17.366 12.618l31.621-16.415 31.621 16.415c8.348 4.694 19.25-3.213 17.366-12.618l-5.84-35.145 25.383-25c7.049-6.5 2.89-19.3-6.634-20.415l-35.229-5.307-15.934-31.867a12 12 0 0 0 -21.466 0l-15.934 31.867-35.233 5.306c-9.526 1.119-13.682 13.912-6.634 20.415zm26.215-27.922a12 12 0 0 0 8.946-6.5l7.986-15.967 7.986 15.972a12 12 0 0 0 8.946 6.5l17.658 2.66-12.722 12.535a12 12 0 0 0 -3.418 10.516l2.927 17.615-15.848-8.231a12 12 0 0 0 -11.058 0l-15.848 8.227 2.927-17.615a12 12 0 0 0 -3.418-10.512l-12.722-12.536z"/><path d="m176.977 187.142a12 12 0 0 0 -3.967-11.978l-27.31-22.88 3-35.5c1.117-9.527-10.364-16.531-18.324-11.182l-30.2 18.9-32.839-13.82c-8.714-4.006-18.924 4.749-16.3 13.972l8.646 34.563-23.29 26.958c-6.5 7.05-1.332 19.466 8.252 19.817l35.543 2.459 18.441 30.483c4.716 8.374 18.1 7.274 21.4-1.725l13.322-33.043 34.69-8.12a12 12 0 0 0 8.936-8.904zm-55.164-4.925a12 12 0 0 0 -8.395 7.2l-6.677 16.561-9.241-15.278a12 12 0 0 0 -9.439-5.76l-17.815-1.232 11.674-13.513a12 12 0 0 0 2.561-10.756l-4.333-17.324 16.459 6.927a12 12 0 0 0 11.022-.888l15.137-9.474-1.5 17.794a12.005 12.005 0 0 0 4.251 10.208l13.683 11.465z"/><path d="m475.607 186.175-23.293-26.958 8.646-34.563c2.628-9.224-7.585-17.978-16.3-13.972l-32.834 13.818-30.2-18.9a12 12 0 0 0 -18.326 11.183l3 35.5-27.31 22.88c-7.548 5.917-4.432 19 4.972 20.882l34.69 8.12 13.322 33.043c3.3 9 16.681 10.1 21.4 1.725l18.442-30.483 35.542-2.459c9.582-.35 14.751-12.767 8.249-19.816zm-51.666-1.237a12 12 0 0 0 -9.439 5.76l-9.243 15.278-6.677-16.561a12 12 0 0 0 -8.394-7.2l-17.388-4.07 13.688-11.467a12.005 12.005 0 0 0 4.251-10.208l-1.5-17.794 15.137 9.474a11.992 11.992 0 0 0 11.022.888l16.459-6.927-4.333 17.324a12 12 0 0 0 2.561 10.756l11.674 13.513z"/><path d="m392 276a35.78 35.78 0 0 0 -15.909 3.717 35.955 35.955 0 0 0 -48-16 35.961 35.961 0 0 0 -44.091-17.653v-54.064a36 36 0 0 0 -72 0v108.035c-12.037-5.946-26.115-8.035-36-8.035a12 12 0 0 0 -12 12v128a12 12 0 0 0 2.4 7.2l48 64a12 12 0 1 0 19.2-14.4l-45.6-60.8v-110.754c10.477 1.9 24 6.688 24 18.754v48a12 12 0 0 0 24 0v-192a12 12 0 0 1 24 0v128a12 12 0 0 0 24 0v-40a12 12 0 0 1 24 0v47a12 12 0 0 0 24 0v-31a12 12 0 0 1 24 0v40a12 12 0 0 0 24 0v-24a12 12 0 0 1 24 0v184a12 12 0 0 0 24 0v-184a36.04 36.04 0 0 0 -36-36z"/></g></g></svg>