<svg height="512pt" viewBox="0 -20 512.00788 512" width="512pt" xmlns="http://www.w3.org/2000/svg"><path d="m481.128906 247.324219c-8.222656-.984375-15.6875 4.890625-16.671875 13.117187-12.328125 103.289063-100.296875 181.183594-204.621093 181.183594-93.832032 0-174.414063-63.011719-198.652344-150.832031l17.945312 9.855469c7.261719 3.988281 16.382813 1.332031 20.367188-5.925782 3.988281-7.261718 1.335937-16.382812-5.925782-20.371094l-46.03125-25.28125c-7.253906-3.984374-16.367187-1.339843-20.359374 5.910157l-25.316407 45.972656c-3.996093 7.257813-1.351562 16.378906 5.902344 20.375 7.492187 3.503906 16.054687 1.78125 20.375-5.902344l5.867187-10.652343c29.722657 97.5 120.488282 166.851562 225.828126 166.851562 119.507812 0 220.28125-89.261719 234.40625-207.628906.984374-8.226563-4.890626-15.691406-13.113282-16.671875zm0 0"/><path d="m502.933594 128.09375c-7.601563-3.277344-16.429688.226562-19.710938 7.835938l-4.726562 10.953124c-14.769532-36.113281-38.472656-68.429687-69.003906-93.449218-42.035157-34.457032-95.183594-53.42968775-149.65625-53.42968775-54.472657 0-107.621094 18.97265575-149.660157 53.42968775-41.457031 33.976562-70.347656 81.398437-81.347656 133.523437-1.710937 8.105469 3.476563 16.0625 11.582031 17.773438 8.09375 1.710937 16.0625-3.472657 17.769532-11.578125 9.597656-45.472656 34.816406-86.851563 71.011718-116.519532 36.6875-30.070312 83.085938-46.628906 130.644532-46.628906 47.554687 0 93.953124 16.558594 130.640624 46.628906 28.199219 23.109376 49.730469 53.332032 62.410157 87.058594l-18.992188-8.167968c-7.609375-3.269532-16.433593.242187-19.707031 7.851562s.242188 16.429688 7.851562 19.703125l48.25 20.753906c8.210938 3.394531 16.207032-.074219 19.703126-7.839843l20.777343-48.1875c3.28125-7.605469-.226562-16.429688-7.835937-19.710938zm0 0"/><path d="m352.285156 125.464844c4.304688-8.683594 4.964844-18.527344 1.867188-27.710938s-9.585938-16.609375-18.269532-20.914062c-17.929687-8.882813-39.738281-1.523438-48.625 16.402344-1.941406 3.921874-3.136718 8.078124-3.582031 12.304687-11.585937-1.066406-23.363281.011719-34.777343 3.296875-22.71875 6.53125-42.042969 21.226562-54.410157 41.371094l-40.503906 65.96875c-5.410156-.96875-11.003906-.566406-16.355469 1.238281-8.371094 2.824219-15.140625 8.738281-19.058594 16.648437l-2.671874 5.386719c-8.09375 16.335938-1.390626 36.214844 14.949218 44.308594l87.679688 43.445313c-8.632813 17.960937-4.765625 38.144531 17.640625 49.417968 19.644531 8.070313 41.511719.164063 50.003906-15.898437l9.269531 4.589843c4.632813 2.296876 9.625 3.457032 14.648438 3.457032 3.558594 0 7.132812-.582032 10.601562-1.753906 8.367188-2.820313 15.136719-8.734376 19.058594-16.648438l2.667969-5.386719c3.921875-7.914062 4.527343-16.878906 1.703125-25.25-1.804688-5.351562-4.875-10.046875-8.921875-13.765625l27.953125-72.183594c8.535156-22.046874 8.519531-46.324218-.042969-68.355468-4.300781-11.070313-10.578125-21.09375-18.441406-29.667969 3.089843-2.914063 5.675781-6.378906 7.617187-10.300781zm-32.539062-22.453125c3.480468 0 6.300781 2.820312 6.300781 6.296875 0 3.480468-2.820313 6.296875-6.300781 6.296875-3.476563 0-6.296875-2.820313-6.296875-6.296875 0-3.476563 2.820312-6.296875 6.296875-6.296875zm-64.316406 247.136719c-1.96875.667968-4.078126.523437-5.941407-.398438s-3.253906-2.515625-3.917969-4.484375c-.519531-1.539063-.539062-3.167969-.082031-4.691406l13.726563 6.800781c-.941406 1.285156-2.246094 2.257812-3.785156 2.773438zm79.746093-127.191407-30.449219 78.625c-4.285156 9.714844-.1875 21.214844 9.417969 25.980469h.003907c1.566406.835938 2.140624 2.554688 1.390624 4.109375l-2.671874 5.386719c-.894532 1.5625-2.488282 2.074218-4.105469 1.382812l-164.59375-81.554687c-1.515625-.75-2.140625-2.59375-1.390625-4.105469l2.671875-5.386719c.722656-1.332031 2.125-2.277343 4.109375-1.386719 4.785156 2.371094 10.207031 2.734376 15.269531 1.03125 4.777344-1.613281 8.695313-4.890624 11.113281-9.277343l44.109375-71.847657c8.441407-13.75 21.632813-23.78125 37.140625-28.242187 15.503906-4.460937 32.007813-2.972656 46.460938 4.191406.003906 0 .003906 0 .007812.003907.003906 0 .003906 0 .007813.003906 14.457031 7.164062 25.636719 19.390625 31.480469 34.429687 5.84375 15.039063 5.851562 31.609375.027343 46.65625zm0 0"/></svg>