<svg xmlns="http://www.w3.org/2000/svg" width="117.308" height="90.546" viewBox="0 0 117.308 90.546">
  <g id="Group_111" data-name="Group 111" transform="translate(-259.944 -1002)">
    <path id="Path_127" data-name="Path 127" d="M692.4,477.146l-15.188-7.831a.973.973,0,0,1-.419-1.31l.94-1.822a.973.973,0,0,1,1.31-.419l15.189,7.831a.973.973,0,0,1,.419,1.31l-.94,1.822a.965.965,0,0,1-.568.48.98.98,0,0,1-.3.047A.968.968,0,0,1,692.4,477.146Z" transform="translate(-347.438 583.792)" fill="#bcc9f3"/>
    <path id="Path_128" data-name="Path 128" d="M742.68,495.224a.967.967,0,0,1,.749.019L748.406,498a2.427,2.427,0,0,1,1.008,3.188l-.062-.03.063.03a2.429,2.429,0,0,1-2.983,1.228l-5.4-1.887a.972.972,0,0,1-.5-1.283l1.6-3.5a.987.987,0,0,1,.1-.18A.967.967,0,0,1,742.68,495.224Z" transform="translate(-402.344 558.389)" fill="#2f2e41"/>
    <path id="Path_162" data-name="Path 162" d="M7.435,0A7.435,7.435,0,1,1,0,7.435,7.435,7.435,0,0,1,7.435,0Z" transform="translate(344.353 1037.902)" fill="#bcc9f3"/>
    <path id="Path_129" data-name="Path 129" d="M832.358,656.954V639.865a.973.973,0,0,1,.972-.972h2.05a.973.973,0,0,1,.972.972v17.088a.973.973,0,0,1-.972.972h-2.05A.973.973,0,0,1,832.358,656.954Z" transform="translate(-481.482 434.62)" fill="#bcc9f3"/>
    <path id="Path_130" data-name="Path 130" d="M800.358,656.954V639.865a.974.974,0,0,1,.972-.972h2.05a.973.973,0,0,1,.972.972v17.088a.973.973,0,0,1-.972.972h-2.05A.973.973,0,0,1,800.358,656.954Z" transform="translate(-453.928 434.62)" fill="#bcc9f3"/>
    <path id="Path_131" data-name="Path 131" d="M828.164,426.58l.008-.278a2.3,2.3,0,0,1-1.315-.3.854.854,0,0,1-.331-.629.489.489,0,0,1,.16-.4.841.841,0,0,1,.859-.008l.23.105-.441-3.221-.275.038.375,2.74a.981.981,0,0,0-.928.133.76.76,0,0,0-.258.624,1.129,1.129,0,0,0,.445.844A2.556,2.556,0,0,0,828.164,426.58Z" transform="translate(-476.22 621.513)" fill="#2f2e41"/>
    <rect id="Rectangle_27" data-name="Rectangle 27" width="1.496" height="0.278" transform="translate(347.982 1043.637)" fill="#2f2e41"/>
    <rect id="Rectangle_28" data-name="Rectangle 28" width="1.496" height="0.278" transform="translate(352.705 1043.637)" fill="#2f2e41"/>
    <path id="Path_132" data-name="Path 132" d="M874.132,552.683l-2.571-16.894a.973.973,0,0,1,.815-1.108l2.027-.308a.973.973,0,0,1,1.108.815l2.572,16.894a.973.973,0,0,1-.815,1.108l-2.027.308a.971.971,0,0,1-1.108-.815Z" transform="translate(-515.23 524.631)" fill="#bcc9f3"/>
    <path id="Path_133" data-name="Path 133" d="M868.766,532.476a.968.968,0,0,1-.424-.618l-.7-5.645a2.427,2.427,0,0,1,1.988-2.689l.012.068-.012-.068a2.429,2.429,0,0,1,2.747,1.693l1.645,5.477a.973.973,0,0,1-.747,1.156l-3.779.76a.98.98,0,0,1-.206.022A.967.967,0,0,1,868.766,532.476Z" transform="translate(-511.851 533.994)" fill="#2f2e41"/>
    <path id="Path_134" data-name="Path 134" d="M746.8,524.538H726.928a1.181,1.181,0,0,1-1.055-1.711l9.606-19.1a6.6,6.6,0,0,1,12.5,2.965v16.667A1.182,1.182,0,0,1,746.8,524.538Z" transform="translate(-389.681 554.142)" fill="#2f2e41"/>
    <path id="Path_135" data-name="Path 135" d="M790.89,360.929c-1.522.34-2.806,1.332-4.336,1.64a3.156,3.156,0,0,1-2.106-.208,2.2,2.2,0,0,1-1.019-1.189,3.282,3.282,0,0,1,.523-3.1A5.2,5.2,0,0,1,787.5,356.4a11.208,11.208,0,0,1,7.471,2.1,11,11,0,0,1,4.474,6.563,7.686,7.686,0,0,1-.245,4.309,5.491,5.491,0,0,1-2.746,2.993,5.387,5.387,0,0,1-.94.35.209.209,0,0,0,.111.4,5.936,5.936,0,0,0,3.44-2.534,7.236,7.236,0,0,0,.962-4.412,11.026,11.026,0,0,0-4.108-7.469,11.915,11.915,0,0,0-7.78-2.764,6.4,6.4,0,0,0-3.976,1.332,3.74,3.74,0,0,0-1.3,3.3,3,3,0,0,0,.658,1.569,2.711,2.711,0,0,0,1.74.9c1.665.217,3.108-.727,4.579-1.334a7.124,7.124,0,0,1,1.161-.376c.262-.058.151-.46-.111-.4Z" transform="translate(-438.839 678.274)" fill="#2f2e41"/>
    <path id="Path_136" data-name="Path 136" d="M867.564,333.792a4.559,4.559,0,0,1,3.082-5.265,6.054,6.054,0,0,1,3.728.042,7.356,7.356,0,0,1,3.073,2.006,13.2,13.2,0,0,1,3.066,7.274c.4,2.716.173,5.69,1.563,8.158a5.233,5.233,0,0,0,2.536,2.36,3.911,3.911,0,0,0,3.253-.121,3.12,3.12,0,0,0,.654-.477c.2-.184-.1-.479-.295-.295a3.247,3.247,0,0,1-3.122.621,4.639,4.639,0,0,1-2.64-2.251,10.034,10.034,0,0,1-1.118-3.888c-.169-1.469-.234-2.946-.459-4.408a13.386,13.386,0,0,0-3.144-7.267,7.829,7.829,0,0,0-3.094-2.059,6.56,6.56,0,0,0-3.789-.191,5.168,5.168,0,0,0-2.848,1.916,4.817,4.817,0,0,0-.983,3.131,4.251,4.251,0,0,0,.135.827.208.208,0,0,0,.4-.111Z" transform="translate(-511.332 702.466)" fill="#2f2e41"/>
    <path id="Path_137" data-name="Path 137" d="M192.253,177.3H180.132a2.364,2.364,0,0,1-2.361-2.362V126.455a2.364,2.364,0,0,1,2.362-2.362H213.01l6.018,5.373v9.769h-.278V129.59l-5.846-5.22H180.132a2.086,2.086,0,0,0-2.084,2.084v48.481a2.086,2.086,0,0,0,2.084,2.084h12.122Z" transform="translate(82.174 877.907)" fill="#2f2e41"/>
    <path id="Path_138" data-name="Path 138" d="M435.882,129.65h-3.751a2.364,2.364,0,0,1-2.362-2.362v-3.056a.139.139,0,1,1,.278,0v3.056a2.086,2.086,0,0,0,2.084,2.084h3.751a.139.139,0,0,1,0,.278Z" transform="translate(-134.82 877.907)" fill="#ccc"/>
    <path id="Path_139" data-name="Path 139" d="M237.094,214.593H205.421a1.111,1.111,0,1,0,0,2.223h31.672a1.111,1.111,0,0,0,0-2.223Z" transform="translate(59.321 799.979)" fill="#e6e6e6"/>
    <path id="Path_140" data-name="Path 140" d="M221.119,180.593h-15.7a1.111,1.111,0,1,0,0,2.223h15.7a1.111,1.111,0,1,0,0-2.223Z" transform="translate(59.321 829.256)" fill="#e6e6e6"/>
    <path id="Path_141" data-name="Path 141" d="M205.421,281.593a1.111,1.111,0,1,0,0,2.223h9.927v-2.223Z" transform="translate(59.321 742.286)" fill="#e6e6e6"/>
    <path id="Path_142" data-name="Path 142" d="M205.421,247.593a1.111,1.111,0,1,0,0,2.223h9.927v-2.223Z" transform="translate(59.321 771.563)" fill="#e6e6e6"/>
    <path id="Path_143" data-name="Path 143" d="M214.918,350.346h-8.9a2.3,2.3,0,0,1-2.292-2.292V336.385a2.3,2.3,0,0,1,2.292-2.292h8.9Z" transform="translate(59.82 697.079)" fill="#e6e6e6"/>
    <path id="Path_144" data-name="Path 144" d="M297.753,284.8H285.632a2.364,2.364,0,0,1-2.362-2.362V233.955a2.364,2.364,0,0,1,2.362-2.362H318.51l6.018,5.373v9.213h-.278V237.09l-5.846-5.22H285.632a2.086,2.086,0,0,0-2.084,2.084v48.481a2.086,2.086,0,0,0,2.084,2.084h12.122Z" transform="translate(-8.671 785.34)" fill="#2f2e41"/>
    <path id="Path_145" data-name="Path 145" d="M541.382,237.15h-3.751a2.364,2.364,0,0,1-2.362-2.362v-3.056a.139.139,0,0,1,.278,0v3.056a2.086,2.086,0,0,0,2.084,2.084h3.751a.139.139,0,1,1,0,.278Z" transform="translate(-225.664 785.34)" fill="#ccc"/>
    <path id="Path_146" data-name="Path 146" d="M342.594,322.093H310.921a1.111,1.111,0,0,0,0,2.223h31.672a1.111,1.111,0,1,0,0-2.223Z" transform="translate(-31.524 707.412)" fill="#e6e6e6"/>
    <path id="Path_147" data-name="Path 147" d="M326.619,288.093h-15.7a1.111,1.111,0,0,0,0,2.223h15.7a1.111,1.111,0,0,0,0-2.223Z" transform="translate(-31.524 736.689)" fill="#e6e6e6"/>
    <path id="Path_148" data-name="Path 148" d="M342.594,322.093H310.921a1.111,1.111,0,0,0,0,2.223h31.672a1.111,1.111,0,1,0,0-2.223Z" transform="translate(-31.524 707.412)" fill="#e6e6e6"/>
    <path id="Path_149" data-name="Path 149" d="M326.619,288.093h-15.7a1.111,1.111,0,0,0,0,2.223h15.7a1.111,1.111,0,0,0,0-2.223Z" transform="translate(-31.524 736.689)" fill="#e6e6e6"/>
    <path id="Path_150" data-name="Path 150" d="M310.921,389.093a1.111,1.111,0,0,0,0,2.223h9.927v-2.223Z" transform="translate(-31.524 649.719)" fill="#e6e6e6"/>
    <path id="Path_151" data-name="Path 151" d="M310.921,355.093a1.111,1.111,0,0,0,0,2.223h9.927v-2.223Z" transform="translate(-31.524 678.996)" fill="#e6e6e6"/>
    <path id="Path_152" data-name="Path 152" d="M310.921,389.093a1.111,1.111,0,0,0,0,2.223h9.927v-2.223Z" transform="translate(-31.524 649.719)" fill="#e6e6e6"/>
    <path id="Path_153" data-name="Path 153" d="M310.921,355.093a1.111,1.111,0,0,0,0,2.223h9.927v-2.223Z" transform="translate(-31.524 678.996)" fill="#e6e6e6"/>
    <path id="Path_154" data-name="Path 154" d="M320.418,457.846h-8.9a2.3,2.3,0,0,1-2.292-2.292V443.885a2.3,2.3,0,0,1,2.292-2.292h8.9Z" transform="translate(-31.024 604.512)" fill="#e6e6e6"/>
    <path id="Path_155" data-name="Path 155" d="M388.4,337.94a2.361,2.361,0,0,0-1.131,2.014v.347h.278v-.347a2.088,2.088,0,0,1,1.549-2.014Zm34.109-.347H389.631a2.364,2.364,0,0,0-2.362,2.362v48.481a2.365,2.365,0,0,0,2.362,2.362h36.534a2.365,2.365,0,0,0,2.362-2.362V342.966Zm5.74,50.843a2.086,2.086,0,0,1-2.084,2.084H389.631a2.086,2.086,0,0,1-2.084-2.084V339.955a2.088,2.088,0,0,1,1.549-2.014,2.06,2.06,0,0,1,.535-.069H422.4l5.846,5.219ZM388.4,337.94a2.361,2.361,0,0,0-1.131,2.014v.347h.278v-.347a2.088,2.088,0,0,1,1.549-2.014Z" transform="translate(-98.223 694.065)" fill="#3f3d56"/>
    <path id="Path_156" data-name="Path 156" d="M645.382,343.15h-3.75a2.364,2.364,0,0,1-2.362-2.362v-3.056a.139.139,0,0,1,.278,0v3.056a2.086,2.086,0,0,0,2.084,2.084h3.75a.139.139,0,1,1,0,.278Z" transform="translate(-315.217 694.065)" fill="#3f3d56"/>
    <path id="Path_157" data-name="Path 157" d="M446.6,430.316H414.923a1.111,1.111,0,1,1,0-2.223H446.6a1.111,1.111,0,0,1,0,2.223Z" transform="translate(-121.079 616.137)" fill="#ccc"/>
    <path id="Path_158" data-name="Path 158" d="M430.621,396.316h-15.7a1.111,1.111,0,1,1,0-2.223h15.7a1.111,1.111,0,1,1,0,2.223Z" transform="translate(-121.079 645.414)" fill="#ccc"/>
    <path id="Path_159" data-name="Path 159" d="M446.6,497.316H414.923a1.111,1.111,0,0,1,0-2.223H446.6a1.111,1.111,0,0,1,0,2.223Z" transform="translate(-121.079 558.444)" fill="#ccc"/>
    <path id="Path_160" data-name="Path 160" d="M430.621,463.316h-15.7a1.111,1.111,0,1,1,0-2.223h15.7a1.111,1.111,0,1,1,0,2.223Z" transform="translate(-121.079 587.721)" fill="#ccc"/>
    <path id="Path_161" data-name="Path 161" d="M444.971,563.846h-29.45a2.3,2.3,0,0,1-2.292-2.292V549.885a2.3,2.3,0,0,1,2.292-2.292h29.45a2.3,2.3,0,0,1,2.292,2.292v11.669A2.3,2.3,0,0,1,444.971,563.846Z" transform="translate(-120.577 513.237)" fill="#bcc9f3"/>
  </g>
</svg>
