<svg id="Layer_1" enable-background="new 0 0 24 24" height="512" viewBox="0 0 24 24" width="512" xmlns="http://www.w3.org/2000/svg"><g><path d="m18.5 11h-13c-3.033 0-5.5-2.468-5.5-5.5s2.467-5.5 5.5-5.5h13c3.033 0 5.5 2.468 5.5 5.5s-2.467 5.5-5.5 5.5zm-13-10c-2.481 0-4.5 2.019-4.5 4.5s2.019 4.5 4.5 4.5h13c2.481 0 4.5-2.019 4.5-4.5s-2.019-4.5-4.5-4.5z"/></g><g><path d="m18.5 24h-13c-3.033 0-5.5-2.468-5.5-5.5s2.467-5.5 5.5-5.5h13c3.033 0 5.5 2.468 5.5 5.5s-2.467 5.5-5.5 5.5zm-13-10c-2.481 0-4.5 2.019-4.5 4.5s2.019 4.5 4.5 4.5h13c2.481 0 4.5-2.019 4.5-4.5s-2.019-4.5-4.5-4.5z"/></g><g><path d="m5.5 8c-1.378 0-2.5-1.121-2.5-2.5s1.122-2.5 2.5-2.5 2.5 1.121 2.5 2.5-1.122 2.5-2.5 2.5zm0-4c-.827 0-1.5.673-1.5 1.5s.673 1.5 1.5 1.5 1.5-.673 1.5-1.5-.673-1.5-1.5-1.5z"/></g><g><path d="m18.5 21c-1.378 0-2.5-1.121-2.5-2.5s1.122-2.5 2.5-2.5 2.5 1.121 2.5 2.5-1.122 2.5-2.5 2.5zm0-4c-.827 0-1.5.673-1.5 1.5s.673 1.5 1.5 1.5 1.5-.673 1.5-1.5-.673-1.5-1.5-1.5z"/></g></svg>