<svg xmlns="http://www.w3.org/2000/svg" width="44.977" height="39.553" viewBox="0 0 44.977 39.553">
  <g id="Group_136" data-name="Group 136" transform="translate(-1755 -5164)">
    <rect id="Rectangle_58" data-name="Rectangle 58" width="8" height="52" rx="2" transform="matrix(0.643, -0.766, 0.766, 0.643, 1755, 5170.128)" fill="#a5bbff"/>
    <g id="paint-brush" transform="translate(1755 5131.214)">
      <g id="Group_133" data-name="Group 133" transform="translate(17.196 33.786)">
        <g id="Group_132" data-name="Group 132" transform="translate(0 0)">
          <path id="Path_194" data-name="Path 194" d="M224.855,34.877a3.708,3.708,0,0,0-2.593-1.091h-.043a3.706,3.706,0,0,0-2.574,1.033L198.872,54.682a8.729,8.729,0,0,1,5.365,4.081,9.817,9.817,0,0,1,.9,2l19.774-20.68a3.727,3.727,0,0,0-.059-5.21Z" transform="translate(-198.872 -33.786)" fill="#0051ff"/>
        </g>
      </g>
      <g id="Group_135" data-name="Group 135" transform="translate(0 57)">
        <g id="Group_134" data-name="Group 134">
          <path id="Path_195" data-name="Path 195" d="M15.269,302.275q-.157-.007-.314-.007a8.509,8.509,0,0,0-4.91,1.63c-1.71,1.23-2.391,3-3.647,4.606-1.574,2.018-4,3-6.4,3.678,1.4,3.7,6.6,5.214,10.009,5.3q.184,0,.369,0c3.86,0,8.407-1.435,10.268-5.233C22.689,308.078,20.171,302.48,15.269,302.275Z" transform="translate(0 -302.268)" fill="#0051ff"/>
        </g>
      </g>
    </g>
  </g>
</svg>
