<svg xmlns="http://www.w3.org/2000/svg" width="43.019" height="43.019" viewBox="0 0 43.019 43.019">
  <g id="Group_138" data-name="Group 138" transform="translate(-1780.491 -4883.491)">
    <g id="Group_137" data-name="Group 137" transform="translate(1780.491 4883.491)">
      <path id="Path_196" data-name="Path 196" d="M128.264,96H98.689A2.689,2.689,0,0,0,96,98.689v29.575a2.689,2.689,0,0,0,2.689,2.689h29.575a2.689,2.689,0,0,0,2.689-2.689V98.689A2.689,2.689,0,0,0,128.264,96Zm0,32.264H98.689V98.689h29.575Z" transform="translate(-87.934 -87.934)" fill="#0051ff"/>
      <path id="Path_197" data-name="Path 197" d="M2.689,2.689H32.264V5.377h2.689V2.689A2.689,2.689,0,0,0,32.264,0H2.689A2.689,2.689,0,0,0,0,2.689V32.264a2.689,2.689,0,0,0,2.689,2.689H5.377V32.264H2.689Z" fill="#a6bdff"/>
      <path id="Path_198" data-name="Path 198" d="M161.55,282.889H183.06a1.344,1.344,0,0,0,.954-2.3l-5.377-5.377a1.344,1.344,0,0,0-1.9,0l-1.748,1.748-4.423-4.423a1.344,1.344,0,0,0-1.9,0l-8.066,8.066a1.344,1.344,0,0,0,.941,2.285Z" transform="translate(-146.762 -249.281)" fill="#0051ff"/>
      <ellipse id="Ellipse_24" data-name="Ellipse 24" cx="3" cy="2.5" rx="3" ry="2.5" transform="translate(29.509 17.509)" fill="#0051ff"/>
    </g>
  </g>
</svg>
