<svg xmlns="http://www.w3.org/2000/svg" width="42" height="38" viewBox="0 0 42 38">
  <g id="Group_127" data-name="Group 127" transform="translate(-1785 -4853)">
    <g id="Rectangle_54" data-name="Rectangle 54" transform="translate(1785 4853)" fill="#fff" stroke="#a5bbff" stroke-width="2">
      <rect width="42" height="38" rx="4" stroke="none"/>
      <rect x="1" y="1" width="40" height="36" rx="3" fill="none"/>
    </g>
    <path id="Rectangle_55" data-name="Rectangle 55" d="M4,0H36a4,4,0,0,1,4,4V15a0,0,0,0,1,0,0H0a0,0,0,0,1,0,0V4A4,4,0,0,1,4,0Z" transform="translate(1786 4854)" fill="#0051ff"/>
    <path id="Rectangle_56" data-name="Rectangle 56" d="M0,0H13a0,0,0,0,1,0,0V18a4,4,0,0,1-4,4H0a0,0,0,0,1,0,0V0A0,0,0,0,1,0,0Z" transform="translate(1813 4869)" fill="#a5bbff"/>
  </g>
</svg>
