<svg xmlns="http://www.w3.org/2000/svg" width="33.308" height="53.019" viewBox="0 0 33.308 53.019">
  <g id="Group_129" data-name="Group 129" transform="translate(-6631 607)">
    <path id="Path_189" data-name="Path 189" d="M170.346,151.79a16.694,16.694,0,0,0-14.581-14.544,17.477,17.477,0,0,0-1.978-.113A16.652,16.652,0,0,0,142.081,165.6a13.115,13.115,0,0,1,4.043,9.317v1.924h15.371v-1.934a12.825,12.825,0,0,1,3.9-9.166,16.6,16.6,0,0,0,4.952-13.953h0Z" transform="translate(6493.84 -744.133)" fill="#0051ff"/>
    <path id="Path_190" data-name="Path 190" d="M233.762,496.276a3.85,3.85,0,0,0,3.623-2.562h-7.246A3.849,3.849,0,0,0,233.762,496.276Z" transform="translate(6414.391 -1050.257)" fill="#a5bbff"/>
    <path id="Path_191" data-name="Path 191" d="M210.286,442.7a1.283,1.283,0,0,0,1.281,1.281h10.247A1.283,1.283,0,0,0,223.1,442.7v-3.843H210.286Z" transform="translate(6431.463 -1003.085)" fill="#a5bbff"/>
    <g id="Group_128" data-name="Group 128" transform="translate(6642.015 -597.36)">
      <circle id="Ellipse_22" data-name="Ellipse 22" cx="6" cy="6" r="6" transform="translate(-0.041 -0.13)" fill="#fff"/>
      <rect id="Rectangle_57" data-name="Rectangle 57" width="2" height="12" transform="translate(4.959 10.87)" fill="#fff"/>
    </g>
  </g>
</svg>
