<svg xmlns="http://www.w3.org/2000/svg" width="576.865" height="513.197" viewBox="0 0 576.865 513.197">
  <g id="Group_79" data-name="Group 79" transform="translate(0 0.014)">
    <path id="Path_92" data-name="Path 92" d="M268.855,797.237c5.794-4.9,9.314-12.63,8.391-20.16s-6.64-14.451-14.055-16.05-15.868,2.827-18.121,10.071c-1.24-13.966-2.668-28.516-10.093-40.41-6.723-10.769-18.368-18.474-30.988-19.853s-25.908,3.828-33.778,13.789-9.8,24.442-4.285,35.878c4.061,8.425,11.542,14.694,19.381,19.795,25.008,16.273,56.031,21.771,85.55,17.427Z" transform="translate(-156.064 -286.103)" fill="#f2f2f2"/>
    <path id="Path_93" data-name="Path 93" d="M192.528,717.187a204.653,204.653,0,0,1,28.521,28.321A207.58,207.58,0,0,1,243.541,778.8a206.71,206.71,0,0,1,9.632,20.394c.578,1.417-1.723,2.034-2.3.633a203.144,203.144,0,0,0-18.562-35.12,203.917,203.917,0,0,0-41.471-45.833c-1.188-.968.5-2.643,1.683-1.683Z" transform="translate(-165.901 -288.337)" fill="#fff"/>
    <path id="Path_94" data-name="Path 94" d="M924.936,371.079H845.673a4.515,4.515,0,0,1-4.51-4.51v-9.51a4.515,4.515,0,0,1,4.51-4.51h79.262a4.515,4.515,0,0,1,4.51,4.51v9.51a4.515,4.515,0,0,1-4.51,4.51Z" transform="translate(-397.34 -158.751)" fill="#a5bbff"/>
    <path id="Path_95" data-name="Path 95" d="M890.581,341.333,856.8,310.876a4.184,4.184,0,0,0-5.359-.206l-73.926,24.408a4.193,4.193,0,0,0-2.664,5.29l2.982,9.031a4.18,4.18,0,0,0,5.29,2.664l67.813-22.39L878.6,354.617a4.158,4.158,0,0,0,2.8,1.078q.11,0,.221-.006a4.16,4.16,0,0,0,2.894-1.378l6.368-7.063a4.193,4.193,0,0,0-.306-5.915Z" transform="translate(-373.681 -143.546)" fill="#a5bbff"/>
    <path id="Path_96" data-name="Path 96" d="M371.927,712.208a3.87,3.87,0,0,0-3.866,3.866v79.262a3.87,3.87,0,0,0,3.866,3.866h9.51a3.87,3.87,0,0,0,3.866-3.866V716.074a3.87,3.87,0,0,0-3.866-3.866Z" transform="translate(-229.075 -286.669)" fill="#a5bbff"/>
    <path id="Path_97" data-name="Path 97" d="M412.274,799.491h-9.51a4.515,4.515,0,0,1-4.51-4.51V715.718a4.515,4.515,0,0,1,4.51-4.51h9.51a4.515,4.515,0,0,1,4.51,4.51v79.262a4.516,4.516,0,0,1-4.51,4.51Z" transform="translate(-239.813 -286.313)" fill="#a5bbff"/>
    <path id="Path_98" data-name="Path 98" d="M412.415,725.35s3.593,32.309-32.68,31.212-22.161-32.845-22.161-32.845,7.58-5.957,26.742-.2S412.415,725.35,412.415,725.35Z" transform="translate(-224.384 -289.8)" fill="#ccc"/>
    <path id="Path_99" data-name="Path 99" d="M414.863,609.918a9.263,9.263,0,0,1-5.127-16.989l62.132-41.121a4.51,4.51,0,0,1,6.251,1.272l5.249,7.93a4.516,4.516,0,0,1-1.272,6.251l-62.132,41.122A9.217,9.217,0,0,1,414.863,609.918Z" transform="translate(-242.42 -229.353)" fill="#a5bbff"/>
    <circle id="Ellipse_4" data-name="Ellipse 4" cx="32.861" cy="32.861" r="32.861" transform="translate(128.301 276.775)" fill="#a5bbff"/>
    <path id="Path_100" data-name="Path 100" d="M402.5,541.629c2.13-.059,4.781-.133,6.823-1.625a5.24,5.24,0,0,0,2.062-3.913,3.525,3.525,0,0,0-1.2-2.9,4.549,4.549,0,0,0-4.3-.619l1.739-12.71-1.277-.175L404.3,534.634l1.066-.489c1.236-.567,2.933-.855,3.987.036a2.265,2.265,0,0,1,.743,1.866,3.961,3.961,0,0,1-1.534,2.917c-1.589,1.161-3.7,1.311-6.1,1.378Z" transform="translate(-241.309 -218.198)" fill="#2f2e41"/>
    <rect id="Rectangle_19" data-name="Rectangle 19" width="6.941" height="1.289" transform="translate(172.623 302.765)" fill="#2f2e41"/>
    <rect id="Rectangle_20" data-name="Rectangle 20" width="6.941" height="1.289" transform="translate(150.716 302.765)" fill="#2f2e41"/>
    <path id="Path_101" data-name="Path 101" d="M350.937,688.536S348.1,592.07,387.821,598.69s23.171,99.777,23.171,99.777-8.512,17.023-29.318-1.892S350.937,688.536,350.937,688.536Z" transform="translate(-222.968 -246.179)" fill="#2f2e41"/>
    <path id="Path_102" data-name="Path 102" d="M356.2,477.458c6.394-4.341,14.464-1.392,20.677,1.706,6.034,3.009,12.833,6.837,19.66,3.939a8.162,8.162,0,0,0,5.21-6.308c.449-3.529-1.685-6.832-4.058-9.231a29.56,29.56,0,0,0-8.87-5.845,41.451,41.451,0,0,0-10.1-3.07,43.938,43.938,0,0,0-38.39,12.069,48.678,48.678,0,0,0-13.805,37.418c.543,7.31,2.878,14.764,7.562,20.5a25.237,25.237,0,0,0,18,9.485,20.186,20.186,0,0,0,5.13-.417c1.213-.259,1.732,1.6.514,1.864-7.315,1.56-14.893-.758-20.694-5.321-6.107-4.8-9.855-12.076-11.5-19.57-3.144-14.34.795-29.772,9.821-41.252a44.972,44.972,0,0,1,16.828-13.279,46.719,46.719,0,0,1,21.709-3.984,43.238,43.238,0,0,1,20.927,6.631c5.625,3.635,11.966,11.342,7.378,18.161a11.988,11.988,0,0,1-7.521,4.741,18.461,18.461,0,0,1-10.131-.883c-7.35-2.6-14.147-8.394-22.373-7.516a10.91,10.91,0,0,0-5,1.826c-1.032.7-2-.974-.976-1.669Z" transform="translate(-213.571 -195.577)" fill="#2f2e41"/>
    <path id="Path_103" data-name="Path 103" d="M807.172,239.193A8.943,8.943,0,0,1,810.1,222.93l72.8-15.848a4.192,4.192,0,0,1,4.983,3.2l-.315.069.315-.069,2.023,9.293a4.188,4.188,0,0,1-3.2,4.983l-72.8,15.848a9.087,9.087,0,0,1-.956.155A8.876,8.876,0,0,1,807.172,239.193Z" transform="translate(-383.789 -106.98)" fill="#a5bbff"/>
    <path id="Path_104" data-name="Path 104" d="M800.038,236.083h0q-.065-.259-.116-.524c-.6-3.153.495-6.473,3.079-9.348a19.785,19.785,0,0,1,10.486-5.841l33.191-7.262a4.189,4.189,0,0,1,5.01,3.31l2.9,15.254a4.166,4.166,0,0,1-3.219,4.872l-33.4,7.307a21.469,21.469,0,0,1-4.585.5C806.8,244.357,801.319,241.152,800.038,236.083Z" transform="translate(-382.615 -109.123)" fill="#2f2e41"/>
    <circle id="Ellipse_5" data-name="Ellipse 5" cx="32.861" cy="32.861" r="32.861" transform="translate(390.37 27.106)" fill="#a5bbff"/>
    <path id="Path_105" data-name="Path 105" d="M852.223,151.146c2.13-.059,4.781-.133,6.824-1.625a5.24,5.24,0,0,0,2.062-3.913,3.525,3.525,0,0,0-1.2-2.9,4.549,4.549,0,0,0-4.3-.619l1.739-12.71-1.277-.175-2.045,14.942,1.066-.489c1.236-.567,2.933-.855,3.987.036a2.265,2.265,0,0,1,.743,1.866,3.96,3.96,0,0,1-1.534,2.917c-1.589,1.161-3.7,1.311-6.1,1.378Z" transform="translate(-401.261 -79.317)" fill="#2f2e41"/>
    <rect id="Rectangle_21" data-name="Rectangle 21" width="6.941" height="1.289" transform="translate(440.491 51.163)" fill="#2f2e41"/>
    <path id="Path_106" data-name="Path 106" d="M752.251,78.779a27.166,27.166,0,0,0-10.623-19.9,26.459,26.459,0,0,0-22.561-4.3,26.058,26.058,0,0,0-17.321,14.78,27.132,27.132,0,0,0-2.326,11.4,30.82,30.82,0,0,0,3.113,12.286c1.938,4.222,4.382,8.183,6.5,12.31a98.238,98.238,0,0,1,5.4,12.6,99.342,99.342,0,0,1,5.362,27.3c.789,14.672-.615,36.092-17.178,41.723a40.6,40.6,0,0,1-13.172,1.687,54.093,54.093,0,0,1-13.8-1.617c-7.819-2.088-15.242-6.991-18.574-14.608a20.335,20.335,0,0,1-1.529-5.521c-.069-.522.494-.962.966-.967a.99.99,0,0,1,.966.966c1.079,8.117,7.843,14.342,15.187,17.141a43.62,43.62,0,0,0,13.361,2.585,49.4,49.4,0,0,0,13.7-.851,19.841,19.841,0,0,0,10.318-5.865,26.676,26.676,0,0,0,5.386-9.744c2.614-7.98,2.888-16.754,2.429-25.072a97.461,97.461,0,0,0-5.475-27.187,95.318,95.318,0,0,0-5.673-12.86c-2.154-4.05-4.545-7.986-6.36-12.208a31.858,31.858,0,0,1-2.864-12.341,29.153,29.153,0,0,1,2.3-11.465,27.945,27.945,0,0,1,16.63-15.7,28.764,28.764,0,0,1,23.206,1.9,29.243,29.243,0,0,1,13.7,17.869,27.977,27.977,0,0,1,.865,5.654c.064,1.243-1.869,1.24-1.933,0Z" transform="translate(-331.319 -51.77)" fill="#2f2e41"/>
    <path id="Path_107" data-name="Path 107" d="M786.6,86.663a15.134,15.134,0,0,0-5.063-9.235A14.929,14.929,0,0,0,771.1,73.964c-1.243.062-1.24-1.871,0-1.933a16.819,16.819,0,0,1,17.361,14.118c.186,1.217-1.676,1.742-1.864.514Z" transform="translate(-372.089 -58.975)" fill="#2f2e41"/>
    <path id="Path_108" data-name="Path 108" d="M789.262,90.68a3.544,3.544,0,0,1,2.254-4.476l9.178-3.03a3.544,3.544,0,0,1,2.222,6.73l-9.178,3.03A3.543,3.543,0,0,1,789.262,90.68Z" transform="translate(-378.817 -62.88)" fill="#2f2e41"/>
    <path id="Path_109" data-name="Path 109" d="M899.178,153.674a3.225,3.225,0,0,0-1.395,5.637l14.183,11.784a2.1,2.1,0,0,1,.5.63,1.971,1.971,0,0,1,.193.777l.885,21.611a3.153,3.153,0,0,0,2.48,3.009l.025.006a3.148,3.148,0,0,0,3.535-1.595l5.116-9.33a1.94,1.94,0,0,1,1.733-.994,1.875,1.875,0,0,1,1.374.61l24.55,26.2a3.2,3.2,0,0,0,2.816.984,3.234,3.234,0,0,0,2.412-1.744l36-72.019a3.223,3.223,0,0,0-3.546-4.6l-1.166.244-89.7,18.792Zm-.575,4.647a1.937,1.937,0,0,1,.843-3.383l89.669-18.786,1.193-.25a1.938,1.938,0,0,1,2.128,2.757l-36,72.019a1.933,1.933,0,0,1-3.137.456l-24.55-26.2a3.09,3.09,0,0,0-.837-.646l62.38-45.254a1.29,1.29,0,0,0-1.062-2.3,1.128,1.128,0,0,0-.208.072l-75.741,33.809a3.178,3.178,0,0,0-.5-.51L898.6,158.321Z" transform="translate(-417.064 -81.223)" fill="#ccc"/>
    <path id="Path_110" data-name="Path 110" d="M899.178,153.674a3.225,3.225,0,0,0-1.395,5.637l14.183,11.784a2.1,2.1,0,0,1,.5.63,1.971,1.971,0,0,1,.193.777l.885,21.611a3.153,3.153,0,0,0,2.48,3.009l.025.006a3.148,3.148,0,0,0,3.535-1.595l5.116-9.33a1.94,1.94,0,0,1,1.733-.994,1.875,1.875,0,0,1,1.374.61l24.55,26.2a3.2,3.2,0,0,0,2.816.984,3.234,3.234,0,0,0,2.412-1.744l36-72.019a3.223,3.223,0,0,0-3.546-4.6l-1.166.244-89.7,18.792Zm-.575,4.647a1.937,1.937,0,0,1,.843-3.383l89.669-18.786,1.193-.25a1.938,1.938,0,0,1,2.128,2.757l-36,72.019a1.933,1.933,0,0,1-3.137.456l-24.55-26.2a3.09,3.09,0,0,0-.837-.646,3.136,3.136,0,0,0-1.462-.372c-.072,0-.145,0-.219,0h-.006a3.215,3.215,0,0,0-2.651,1.663l-5.117,9.336a1.876,1.876,0,0,1-2.126.95l-.013,0a1.871,1.871,0,0,1-1.486-1.8l-.885-21.611a3.044,3.044,0,0,0-.1-.676v-.006a3.092,3.092,0,0,0-.23-.614,3,3,0,0,0-.34-.54,3.182,3.182,0,0,0-.5-.51L898.6,158.321Z" transform="translate(-417.064 -81.223)" fill="#3f3d56"/>
    <path id="Path_111" data-name="Path 111" d="M922.326,171.789l75.741-33.809a1.123,1.123,0,0,1,.208-.072,1.29,1.29,0,0,1,1.062,2.3l-62.38,45.254-1.1.8-.754-1.044.168-.127h.006l63.3-45.93L922.9,172.943v.006l-.33.143-.525-1.177Z" transform="translate(-426.105 -82.397)" fill="#3f3d56"/>
    <path id="Path_112" data-name="Path 112" d="M773.664,349.73a3.548,3.548,0,0,0-3.544,3.544v12.887a3.548,3.548,0,0,0,3.544,3.544H814.9a3.548,3.548,0,0,0,3.544-3.544V353.274a3.548,3.548,0,0,0-3.544-3.544Z" transform="translate(-372.073 -157.749)" fill="#2f2e41"/>
    <path id="Path_113" data-name="Path 113" d="M766.845,237.059a33.031,33.031,0,0,0-1.061,17.745c3.277,16.066,2.057,35.059-1.164,55.355a3.625,3.625,0,0,0,3.322,3.866h50.38a3.625,3.625,0,0,0,3.322-3.866V249.914c0-17.8-12.1-32.371-27.239-33.145-.421-.026-.847-.039-1.273-.039C781.323,216.73,771.17,225.126,766.845,237.059Z" transform="translate(-370.116 -110.445)" fill="#2f2e41"/>
    <path id="Path_114" data-name="Path 114" d="M792.976,323.568V249.06a8.943,8.943,0,0,1,17.887,0v74.507a4.193,4.193,0,0,1-4.188,4.188h-9.51a4.193,4.193,0,0,1-4.188-4.188Z" transform="translate(-380.202 -118.763)" fill="#a5bbff"/>
    <path id="Path_115" data-name="Path 115" d="M807.047,266.385l-13.518-.595a4.193,4.193,0,0,1-4-4.368l.949-21.564a10.954,10.954,0,1,1,21.886.964l-.949,21.564a4.188,4.188,0,0,1-4.179,4Q807.142,266.388,807.047,266.385Z" transform="translate(-378.974 -114.946)" fill="#2f2e41"/>
    <ellipse id="Ellipse_6" data-name="Ellipse 6" cx="2.9" cy="9.343" rx="2.9" ry="9.343" transform="translate(448.628 146.556)" fill="#2f2e41"/>
    <circle id="Ellipse_7" data-name="Ellipse 7" cx="16.108" cy="16.108" r="16.108" transform="translate(276.517 239.984)" fill="#ccc"/>
    <path id="Path_116" data-name="Path 116" d="M782.6,468.539H658.889a5.155,5.155,0,1,1,0-10.309H782.6a5.155,5.155,0,0,1,0,10.309Z" transform="translate(-330.678 -196.338)" fill="#ccc"/>
    <path id="Path_117" data-name="Path 117" d="M749.1,434.539H658.889a5.155,5.155,0,1,1,0-10.309H749.1a5.155,5.155,0,1,1,0,10.309Z" transform="translate(-330.678 -184.246)" fill="#ccc"/>
    <circle id="Ellipse_8" data-name="Ellipse 8" cx="16.108" cy="16.108" r="16.108" transform="translate(276.517 301.196)" fill="#ccc"/>
    <path id="Path_118" data-name="Path 118" d="M782.6,563.539H658.889a5.155,5.155,0,1,1,0-10.309H782.6a5.155,5.155,0,0,1,0,10.309Z" transform="translate(-330.678 -230.126)" fill="#ccc"/>
    <path id="Path_119" data-name="Path 119" d="M749.1,529.539H658.889a5.155,5.155,0,1,1,0-10.309H749.1a5.155,5.155,0,0,1,0,10.309Z" transform="translate(-330.678 -218.034)" fill="#ccc"/>
    <circle id="Ellipse_9" data-name="Ellipse 9" cx="16.108" cy="16.108" r="16.108" transform="translate(276.517 363.053)" fill="#ccc"/>
    <path id="Path_120" data-name="Path 120" d="M782.6,659.539H658.889a5.155,5.155,0,1,1,0-10.309H782.6a5.155,5.155,0,0,1,0,10.309Z" transform="translate(-330.678 -264.27)" fill="#ccc"/>
    <path id="Path_121" data-name="Path 121" d="M749.1,625.539H658.889a5.155,5.155,0,1,1,0-10.309H749.1a5.155,5.155,0,0,1,0,10.309Z" transform="translate(-330.678 -252.177)" fill="#ccc"/>
    <path id="Path_122" data-name="Path 122" d="M773.02,592.505H516.574a10.966,10.966,0,0,1-10.954-10.954V390.184a10.966,10.966,0,0,1,10.954-10.954H773.02a10.966,10.966,0,0,1,10.954,10.954V581.552A10.966,10.966,0,0,1,773.02,592.505ZM516.574,380.519a9.676,9.676,0,0,0-9.665,9.665V581.552a9.676,9.676,0,0,0,9.665,9.665H773.02a9.676,9.676,0,0,0,9.665-9.665V390.184a9.676,9.676,0,0,0-9.665-9.665Z" transform="translate(-278 -168.241)" fill="#3f3d56"/>
    <circle id="Ellipse_10" data-name="Ellipse 10" cx="36.083" cy="36.083" r="36.083" transform="translate(196.048 178.128)" fill="#0050ff"/>
    <path id="Path_123" data-name="Path 123" d="M500.309,390.445a3.742,3.742,0,0,1-2.252-.748l-.04-.03-8.479-6.493a3.767,3.767,0,0,1,4.583-5.981l5.492,4.212,12.98-16.927a3.767,3.767,0,0,1,5.282-.7l-.081.11.083-.108a3.771,3.771,0,0,1,.7,5.282l-15.267,19.911a3.769,3.769,0,0,1-3,1.47Z" transform="translate(-271.754 -162.469)" fill="#fff"/>
    <path id="Path_124" data-name="Path 124" d="M470.628,692.234a4.463,4.463,0,0,1-1.84-.4h0l-67.98-30.5a9.265,9.265,0,0,1,7.585-16.907l67.981,30.5a4.51,4.51,0,0,1,2.269,5.961l-3.892,8.677a4.522,4.522,0,0,1-4.122,2.664Z" transform="translate(-238.775 -262.275)" fill="#a5bbff"/>
    <path id="Path_125" data-name="Path 125" d="M398.492,847.519H153a.644.644,0,0,1,0-1.289H398.492a.644.644,0,0,1,0,1.289Z" transform="translate(-152.356 -334.336)" fill="#3f3d56"/>
  </g>
</svg>
